%
M48
M72
T01C0.01181
T02C0.04000
T03C0.04400
T04C0.13386
T05C0.14173
%
T01
X6547Y15777
X6547Y32312
X6547Y51997
X21898Y59127
X6547Y71682
X6547Y91367
X23398Y97627
X21898Y106627
X24898Y111627
X24898Y116627
X6547Y111052
X6547Y130737
X6547Y150423
X6547Y170108
X18898Y176627
X27898Y186627
X29398Y196627
X6547Y189793
X6547Y209478
X6547Y229163
X14398Y231627
X6547Y248848
X6547Y268533
X6547Y288218
X6547Y307903
X6547Y327588
X6547Y347273
X6547Y366958
X21898Y367627
X24898Y361127
X30398Y356627
X37398Y376627
X51898Y376627
X74398Y353627
X69398Y350627
X72398Y338281
X81398Y345127
X82398Y332127
X74398Y328627
X64398Y328627
X61398Y312627
X64398Y306127
X51398Y312627
X42898Y295627
X33898Y295627
X28898Y303127
X30398Y332627
X57898Y348127
X85398Y313127
X89398Y291127
X109398Y286627
X116398Y290127
X120898Y281627
X129398Y289627
X141898Y288627
X140898Y274627
X139398Y264627
X139398Y246127
X129398Y244127
X141898Y231127
X139398Y219627
X139398Y201127
X129398Y199127
X143398Y182127
X137898Y173627
X134398Y176627
X139398Y155627
X141898Y144627
X139398Y129627
X139398Y111127
X129398Y109627
X113898Y109627
X104398Y131127
X90898Y136127
X103898Y154627
X124398Y151627
X154898Y188127
X159898Y176627
X171398Y185627
X171898Y167627
X164898Y151627
X170398Y145127
X183898Y126627
X193398Y126627
X203898Y126627
X213398Y126627
X222898Y126627
X232898Y126627
X242898Y126627
X261898Y126627
X261898Y138627
X270898Y146627
X255398Y164627
X243398Y164627
X233398Y164627
X223398Y164627
X238398Y187627
X228398Y191127
X209898Y191127
X204898Y188127
X199898Y184127
X189898Y186127
X189898Y168127
X205898Y207627
X208398Y221127
X210398Y240627
X215398Y243627
X220398Y246627
X229898Y243627
X252398Y252627
X254898Y271627
X248398Y274127
X262398Y276627
X268398Y266627
X275898Y261127
X298398Y261627
X298398Y251627
X325898Y221627
X331898Y211627
X328898Y208627
X338898Y202127
X337898Y218627
X315898Y202127
X322898Y181627
X328898Y166627
X335398Y176627
X338898Y156627
X334898Y146627
X349398Y154127
X328898Y126627
X340898Y122127
X370898Y125127
X370898Y116127
X370898Y105127
X370898Y96127
X368898Y82127
X369398Y56627
X358898Y36627
X339398Y35127
X325398Y35127
X324398Y50627
X338398Y60127
X338398Y70127
X338898Y80127
X340398Y90127
X317398Y92127
X295898Y85627
X295898Y75627
X295898Y65127
X295898Y55127
X290898Y35127
X304398Y35127
X298673Y15777
X278988Y15777
X269898Y35127
X260898Y42127
X259303Y15777
X239618Y15777
X219933Y15777
X200248Y15777
X180563Y15777
X160878Y15777
X141193Y15777
X139398Y21127
X121508Y15777
X101823Y15777
X82138Y15777
X62453Y15777
X42768Y15777
X23083Y15777
X66398Y59127
X65898Y81627
X71898Y93127
X84898Y106627
X89898Y116627
X90898Y93627
X92898Y80127
X87898Y54127
X113898Y63627
X129398Y63627
X139398Y66127
X156898Y51127
X139398Y40127
X177898Y81127
X177398Y91127
X154898Y93627
X142398Y93627
X206898Y82127
X228398Y91127
X249398Y91627
X249398Y82127
X270398Y70127
X276898Y96627
X298398Y111627
X298398Y121627
X298398Y131627
X298398Y141627
X298398Y151127
X298398Y161627
X298398Y172127
X298398Y182127
X298398Y191627
X298398Y201627
X271398Y196627
X265398Y206627
X252898Y228127
X235898Y213627
X229898Y216627
X248398Y184127
X256398Y183127
X198898Y240627
X188898Y243627
X178898Y246627
X176398Y242127
X180898Y231627
X190398Y216627
X184398Y213627
X164898Y213627
X159898Y216627
X164398Y221127
X161398Y231627
X161898Y244127
X162898Y267627
X157898Y281627
X156398Y288627
X161398Y319627
X171398Y330127
X153898Y351127
X147744Y338281
X140898Y356127
X134398Y353627
X124398Y350627
X111898Y345127
X111398Y330627
X109398Y311127
X120398Y372127
X120898Y392627
X121508Y403178
X141193Y403178
X147898Y392127
X160878Y403178
X180563Y403178
X194398Y388627
X200248Y403178
X219933Y403178
X239618Y403178
X251398Y388627
X259898Y377127
X273898Y386127
X275398Y373627
X286398Y362627
X299398Y369627
X295898Y387127
X298673Y403178
X278988Y403178
X259303Y403178
X240398Y366627
X241898Y354627
X251398Y359627
X259898Y348127
X270898Y330127
X287398Y311627
X300398Y322127
X301398Y346127
X264398Y306127
X243898Y309127
X223898Y309127
X213898Y309127
X203898Y309127
X193398Y309127
X183398Y309127
X219398Y338127
X210398Y352627
X194398Y359627
X185898Y369127
X177898Y367627
X177898Y361127
X147898Y372627
X101823Y403178
X82138Y403178
X62453Y403178
X42768Y403178
X23083Y403178
X6547Y403178
X6547Y386643
X58398Y271627
X58398Y261627
X58398Y251627
X58398Y241627
X58398Y221627
X58398Y211627
X58398Y201627
X58398Y191627
X58398Y181627
X58398Y171627
X58398Y161627
X58398Y151627
X58398Y141627
X58398Y131627
X58398Y121627
X58398Y111627
X45898Y126627
X42898Y92627
X27898Y86627
X43898Y75627
X104398Y200127
X114398Y225127
X109398Y237627
X114398Y245627
X99398Y243627
X31898Y244627
X206398Y258627
X233898Y285127
X239398Y338627
X209898Y380627
X318358Y403178
X338043Y403178
X357728Y403178
X364898Y391627
X370398Y386127
X364898Y380127
X371898Y361127
X393949Y366958
X393949Y386643
X393949Y403178
X377413Y403178
X341398Y378127
X339898Y348627
X351398Y333627
X356898Y329127
X356898Y338127
X370898Y325627
X370898Y315627
X370898Y305627
X370898Y298127
X354398Y304127
X333398Y298627
X351398Y278627
X369398Y279127
X369398Y248627
X351398Y249127
X368898Y220127
X368898Y195127
X376898Y161127
X393949Y130737
X393949Y111052
X393949Y91367
X393949Y71682
X393949Y51997
X393949Y32312
X393949Y15777
X377413Y15777
X357728Y15777
X338043Y15777
X318358Y15777
X393949Y347273
T02
X303398Y286627
X303398Y276627
X303398Y266627
X303398Y256627
X303398Y246627
X303398Y236627
X303398Y226627
X303398Y216627
X303398Y206627
X303398Y196627
X303398Y186627
X303398Y176627
X303398Y166627
X303398Y156627
X303398Y146627
X303398Y136627
X303398Y126627
X303398Y116627
X303398Y106627
X293398Y106627
X293398Y116627
X293398Y126627
X293398Y136627
X293398Y146627
X293398Y156627
X293398Y166627
X293398Y176627
X293398Y186627
X293398Y196627
X293398Y206627
X293398Y216627
X293398Y226627
X293398Y236627
X293398Y246627
X293398Y256627
X293398Y266627
X293398Y276627
X293398Y286627
X284898Y329627
X284898Y339627
X284898Y376127
X284898Y386127
X234898Y376627
X224898Y376627
X224898Y347627
X234898Y347627
X238898Y320127
X228898Y320127
X218898Y320127
X208898Y320127
X198898Y320127
X188898Y320127
X178898Y320127
X177898Y347627
X167898Y347627
X167898Y376627
X177898Y376627
X139398Y300127
X129398Y300127
X119398Y300127
X109398Y300127
X109398Y255127
X119398Y255127
X129398Y255127
X139398Y255127
X149398Y255127
X149398Y210127
X139398Y210127
X129398Y210127
X119398Y210127
X109398Y210127
X99398Y210127
X63398Y206627
X63398Y196627
X63398Y186627
X63398Y176627
X63398Y166627
X53398Y166627
X53398Y176627
X53398Y186627
X53398Y196627
X53398Y206627
X53398Y216627
X63398Y216627
X63398Y226627
X63398Y236627
X63398Y246627
X63398Y256627
X53398Y256627
X53398Y246627
X53398Y236627
X53398Y226627
X53398Y266627
X63398Y266627
X63398Y276627
X63398Y286627
X53398Y286627
X53398Y276627
X99398Y255127
X99398Y165127
X109398Y165127
X119398Y165127
X129398Y165127
X139398Y165127
X149398Y165127
X149398Y120127
X139398Y120127
X129398Y120127
X119398Y120127
X109398Y120127
X99398Y120127
X63398Y116627
X63398Y106627
X53398Y106627
X53398Y116627
X53398Y126627
X63398Y126627
X63398Y136627
X63398Y146627
X63398Y156627
X53398Y156627
X53398Y146627
X53398Y136627
X99398Y75127
X109398Y75127
X119398Y75127
X129398Y75127
X139398Y75127
X149398Y75127
X178398Y116127
X188398Y116127
X198398Y116127
X208398Y116127
X218398Y116127
X228398Y116127
X238398Y116127
X248398Y116127
X280398Y85127
X280398Y75127
X280398Y65127
X280398Y55127
X280398Y45127
X280398Y35127
X280398Y25127
X314898Y25127
X314898Y35127
X314898Y45127
X314898Y55127
X314898Y65127
X314898Y75127
X314898Y85127
X349398Y85127
X349398Y75127
X349398Y65127
X349398Y55127
X349398Y45127
X349398Y35127
X349398Y25127
X349398Y122127
X349398Y132127
X349398Y142127
X349398Y198627
X349398Y208627
X349398Y218627
X248898Y320127
X149398Y30127
X139398Y30127
X129398Y30127
X119398Y30127
X109398Y30127
X99398Y30127
T03
X380898Y80627
X380898Y100627
X380898Y120627
X380898Y140627
X380898Y200627
X380898Y220627
X380898Y280627
X380898Y300627
X380898Y320627
X380898Y340627
T04
X381350Y390580
X381350Y28375
X19146Y28375
X19146Y390580
T05
X83398Y301627
X203398Y96627
X273398Y296627
M30
