G75*
%MOIN*%
%OFA0B0*%
%FSLAX25Y25*%
%IPPOS*%
%LPD*%
%AMOC8*
5,1,8,0,0,1.08239X$1,22.5*
%
%ADD10C,0.00800*%
%ADD11C,0.00400*%
D10*
X0044000Y0016000D02*
X0324000Y0016000D01*
X0324000Y0351000D01*
X0249000Y0351000D01*
X0249000Y0371000D01*
X0214000Y0371000D01*
X0214000Y0351000D01*
X0044000Y0351000D01*
X0044000Y0016000D01*
X0059000Y0228500D02*
X0061500Y0233500D01*
X0056500Y0233500D02*
X0059000Y0228500D01*
X0214000Y0321000D02*
X0249000Y0321000D01*
X0249000Y0351000D01*
X0241500Y0341000D02*
X0236500Y0341000D01*
X0236500Y0366000D01*
X0226500Y0366000D01*
X0226500Y0341000D01*
X0221500Y0341000D01*
X0231500Y0326000D01*
X0241500Y0341000D01*
X0214000Y0351000D02*
X0214000Y0321000D01*
X0296500Y0233500D02*
X0299000Y0228500D01*
X0301500Y0233500D01*
D11*
X0186477Y0353700D02*
X0183408Y0353700D01*
X0184942Y0353700D02*
X0184942Y0358304D01*
X0183408Y0356769D01*
X0181873Y0357537D02*
X0181106Y0358304D01*
X0179571Y0358304D01*
X0178804Y0357537D01*
X0178804Y0356769D01*
X0179571Y0356002D01*
X0181106Y0356002D01*
X0181873Y0355235D01*
X0181873Y0354467D01*
X0181106Y0353700D01*
X0179571Y0353700D01*
X0178804Y0354467D01*
X0177269Y0354467D02*
X0177269Y0358304D01*
X0174200Y0358304D02*
X0174200Y0354467D01*
X0174967Y0353700D01*
X0176502Y0353700D01*
X0177269Y0354467D01*
X0180339Y0352933D02*
X0180339Y0359071D01*
M02*
