G75*
%MOIN*%
%OFA0B0*%
%FSLAX25Y25*%
%IPPOS*%
%LPD*%
%AMOC8*
5,1,8,0,0,1.08239X$1,22.5*
%
%ADD10C,0.00000*%
%ADD11OC8,0.06000*%
%ADD12R,0.03000X0.06000*%
%ADD13C,0.01600*%
D10*
X0001000Y0001000D02*
X0001000Y0394701D01*
X0394701Y0394701D01*
X0394701Y0001000D01*
X0001000Y0001000D01*
X0201913Y0031000D02*
X0201915Y0031174D01*
X0201922Y0031348D01*
X0201932Y0031521D01*
X0201947Y0031695D01*
X0201966Y0031868D01*
X0201990Y0032040D01*
X0202017Y0032212D01*
X0202049Y0032383D01*
X0202085Y0032553D01*
X0202125Y0032722D01*
X0202170Y0032890D01*
X0202218Y0033057D01*
X0202271Y0033223D01*
X0202327Y0033388D01*
X0202388Y0033551D01*
X0202452Y0033712D01*
X0202521Y0033872D01*
X0202593Y0034030D01*
X0202670Y0034186D01*
X0202750Y0034341D01*
X0202834Y0034493D01*
X0202921Y0034643D01*
X0203013Y0034792D01*
X0203107Y0034937D01*
X0203206Y0035081D01*
X0203308Y0035222D01*
X0203413Y0035360D01*
X0203522Y0035496D01*
X0203634Y0035629D01*
X0203749Y0035759D01*
X0203867Y0035887D01*
X0203989Y0036011D01*
X0204113Y0036133D01*
X0204241Y0036251D01*
X0204371Y0036366D01*
X0204504Y0036478D01*
X0204640Y0036587D01*
X0204778Y0036692D01*
X0204919Y0036794D01*
X0205063Y0036893D01*
X0205208Y0036987D01*
X0205357Y0037079D01*
X0205507Y0037166D01*
X0205659Y0037250D01*
X0205814Y0037330D01*
X0205970Y0037407D01*
X0206128Y0037479D01*
X0206288Y0037548D01*
X0206449Y0037612D01*
X0206612Y0037673D01*
X0206777Y0037729D01*
X0206943Y0037782D01*
X0207110Y0037830D01*
X0207278Y0037875D01*
X0207447Y0037915D01*
X0207617Y0037951D01*
X0207788Y0037983D01*
X0207960Y0038010D01*
X0208132Y0038034D01*
X0208305Y0038053D01*
X0208479Y0038068D01*
X0208652Y0038078D01*
X0208826Y0038085D01*
X0209000Y0038087D01*
X0209174Y0038085D01*
X0209348Y0038078D01*
X0209521Y0038068D01*
X0209695Y0038053D01*
X0209868Y0038034D01*
X0210040Y0038010D01*
X0210212Y0037983D01*
X0210383Y0037951D01*
X0210553Y0037915D01*
X0210722Y0037875D01*
X0210890Y0037830D01*
X0211057Y0037782D01*
X0211223Y0037729D01*
X0211388Y0037673D01*
X0211551Y0037612D01*
X0211712Y0037548D01*
X0211872Y0037479D01*
X0212030Y0037407D01*
X0212186Y0037330D01*
X0212341Y0037250D01*
X0212493Y0037166D01*
X0212643Y0037079D01*
X0212792Y0036987D01*
X0212937Y0036893D01*
X0213081Y0036794D01*
X0213222Y0036692D01*
X0213360Y0036587D01*
X0213496Y0036478D01*
X0213629Y0036366D01*
X0213759Y0036251D01*
X0213887Y0036133D01*
X0214011Y0036011D01*
X0214133Y0035887D01*
X0214251Y0035759D01*
X0214366Y0035629D01*
X0214478Y0035496D01*
X0214587Y0035360D01*
X0214692Y0035222D01*
X0214794Y0035081D01*
X0214893Y0034937D01*
X0214987Y0034792D01*
X0215079Y0034643D01*
X0215166Y0034493D01*
X0215250Y0034341D01*
X0215330Y0034186D01*
X0215407Y0034030D01*
X0215479Y0033872D01*
X0215548Y0033712D01*
X0215612Y0033551D01*
X0215673Y0033388D01*
X0215729Y0033223D01*
X0215782Y0033057D01*
X0215830Y0032890D01*
X0215875Y0032722D01*
X0215915Y0032553D01*
X0215951Y0032383D01*
X0215983Y0032212D01*
X0216010Y0032040D01*
X0216034Y0031868D01*
X0216053Y0031695D01*
X0216068Y0031521D01*
X0216078Y0031348D01*
X0216085Y0031174D01*
X0216087Y0031000D01*
X0216085Y0030826D01*
X0216078Y0030652D01*
X0216068Y0030479D01*
X0216053Y0030305D01*
X0216034Y0030132D01*
X0216010Y0029960D01*
X0215983Y0029788D01*
X0215951Y0029617D01*
X0215915Y0029447D01*
X0215875Y0029278D01*
X0215830Y0029110D01*
X0215782Y0028943D01*
X0215729Y0028777D01*
X0215673Y0028612D01*
X0215612Y0028449D01*
X0215548Y0028288D01*
X0215479Y0028128D01*
X0215407Y0027970D01*
X0215330Y0027814D01*
X0215250Y0027659D01*
X0215166Y0027507D01*
X0215079Y0027357D01*
X0214987Y0027208D01*
X0214893Y0027063D01*
X0214794Y0026919D01*
X0214692Y0026778D01*
X0214587Y0026640D01*
X0214478Y0026504D01*
X0214366Y0026371D01*
X0214251Y0026241D01*
X0214133Y0026113D01*
X0214011Y0025989D01*
X0213887Y0025867D01*
X0213759Y0025749D01*
X0213629Y0025634D01*
X0213496Y0025522D01*
X0213360Y0025413D01*
X0213222Y0025308D01*
X0213081Y0025206D01*
X0212937Y0025107D01*
X0212792Y0025013D01*
X0212643Y0024921D01*
X0212493Y0024834D01*
X0212341Y0024750D01*
X0212186Y0024670D01*
X0212030Y0024593D01*
X0211872Y0024521D01*
X0211712Y0024452D01*
X0211551Y0024388D01*
X0211388Y0024327D01*
X0211223Y0024271D01*
X0211057Y0024218D01*
X0210890Y0024170D01*
X0210722Y0024125D01*
X0210553Y0024085D01*
X0210383Y0024049D01*
X0210212Y0024017D01*
X0210040Y0023990D01*
X0209868Y0023966D01*
X0209695Y0023947D01*
X0209521Y0023932D01*
X0209348Y0023922D01*
X0209174Y0023915D01*
X0209000Y0023913D01*
X0208826Y0023915D01*
X0208652Y0023922D01*
X0208479Y0023932D01*
X0208305Y0023947D01*
X0208132Y0023966D01*
X0207960Y0023990D01*
X0207788Y0024017D01*
X0207617Y0024049D01*
X0207447Y0024085D01*
X0207278Y0024125D01*
X0207110Y0024170D01*
X0206943Y0024218D01*
X0206777Y0024271D01*
X0206612Y0024327D01*
X0206449Y0024388D01*
X0206288Y0024452D01*
X0206128Y0024521D01*
X0205970Y0024593D01*
X0205814Y0024670D01*
X0205659Y0024750D01*
X0205507Y0024834D01*
X0205357Y0024921D01*
X0205208Y0025013D01*
X0205063Y0025107D01*
X0204919Y0025206D01*
X0204778Y0025308D01*
X0204640Y0025413D01*
X0204504Y0025522D01*
X0204371Y0025634D01*
X0204241Y0025749D01*
X0204113Y0025867D01*
X0203989Y0025989D01*
X0203867Y0026113D01*
X0203749Y0026241D01*
X0203634Y0026371D01*
X0203522Y0026504D01*
X0203413Y0026640D01*
X0203308Y0026778D01*
X0203206Y0026919D01*
X0203107Y0027063D01*
X0203013Y0027208D01*
X0202921Y0027357D01*
X0202834Y0027507D01*
X0202750Y0027659D01*
X0202670Y0027814D01*
X0202593Y0027970D01*
X0202521Y0028128D01*
X0202452Y0028288D01*
X0202388Y0028449D01*
X0202327Y0028612D01*
X0202271Y0028777D01*
X0202218Y0028943D01*
X0202170Y0029110D01*
X0202125Y0029278D01*
X0202085Y0029447D01*
X0202049Y0029617D01*
X0202017Y0029788D01*
X0201990Y0029960D01*
X0201966Y0030132D01*
X0201947Y0030305D01*
X0201932Y0030479D01*
X0201922Y0030652D01*
X0201915Y0030826D01*
X0201913Y0031000D01*
X0271913Y0231000D02*
X0271915Y0231174D01*
X0271922Y0231348D01*
X0271932Y0231521D01*
X0271947Y0231695D01*
X0271966Y0231868D01*
X0271990Y0232040D01*
X0272017Y0232212D01*
X0272049Y0232383D01*
X0272085Y0232553D01*
X0272125Y0232722D01*
X0272170Y0232890D01*
X0272218Y0233057D01*
X0272271Y0233223D01*
X0272327Y0233388D01*
X0272388Y0233551D01*
X0272452Y0233712D01*
X0272521Y0233872D01*
X0272593Y0234030D01*
X0272670Y0234186D01*
X0272750Y0234341D01*
X0272834Y0234493D01*
X0272921Y0234643D01*
X0273013Y0234792D01*
X0273107Y0234937D01*
X0273206Y0235081D01*
X0273308Y0235222D01*
X0273413Y0235360D01*
X0273522Y0235496D01*
X0273634Y0235629D01*
X0273749Y0235759D01*
X0273867Y0235887D01*
X0273989Y0236011D01*
X0274113Y0236133D01*
X0274241Y0236251D01*
X0274371Y0236366D01*
X0274504Y0236478D01*
X0274640Y0236587D01*
X0274778Y0236692D01*
X0274919Y0236794D01*
X0275063Y0236893D01*
X0275208Y0236987D01*
X0275357Y0237079D01*
X0275507Y0237166D01*
X0275659Y0237250D01*
X0275814Y0237330D01*
X0275970Y0237407D01*
X0276128Y0237479D01*
X0276288Y0237548D01*
X0276449Y0237612D01*
X0276612Y0237673D01*
X0276777Y0237729D01*
X0276943Y0237782D01*
X0277110Y0237830D01*
X0277278Y0237875D01*
X0277447Y0237915D01*
X0277617Y0237951D01*
X0277788Y0237983D01*
X0277960Y0238010D01*
X0278132Y0238034D01*
X0278305Y0238053D01*
X0278479Y0238068D01*
X0278652Y0238078D01*
X0278826Y0238085D01*
X0279000Y0238087D01*
X0279174Y0238085D01*
X0279348Y0238078D01*
X0279521Y0238068D01*
X0279695Y0238053D01*
X0279868Y0238034D01*
X0280040Y0238010D01*
X0280212Y0237983D01*
X0280383Y0237951D01*
X0280553Y0237915D01*
X0280722Y0237875D01*
X0280890Y0237830D01*
X0281057Y0237782D01*
X0281223Y0237729D01*
X0281388Y0237673D01*
X0281551Y0237612D01*
X0281712Y0237548D01*
X0281872Y0237479D01*
X0282030Y0237407D01*
X0282186Y0237330D01*
X0282341Y0237250D01*
X0282493Y0237166D01*
X0282643Y0237079D01*
X0282792Y0236987D01*
X0282937Y0236893D01*
X0283081Y0236794D01*
X0283222Y0236692D01*
X0283360Y0236587D01*
X0283496Y0236478D01*
X0283629Y0236366D01*
X0283759Y0236251D01*
X0283887Y0236133D01*
X0284011Y0236011D01*
X0284133Y0235887D01*
X0284251Y0235759D01*
X0284366Y0235629D01*
X0284478Y0235496D01*
X0284587Y0235360D01*
X0284692Y0235222D01*
X0284794Y0235081D01*
X0284893Y0234937D01*
X0284987Y0234792D01*
X0285079Y0234643D01*
X0285166Y0234493D01*
X0285250Y0234341D01*
X0285330Y0234186D01*
X0285407Y0234030D01*
X0285479Y0233872D01*
X0285548Y0233712D01*
X0285612Y0233551D01*
X0285673Y0233388D01*
X0285729Y0233223D01*
X0285782Y0233057D01*
X0285830Y0232890D01*
X0285875Y0232722D01*
X0285915Y0232553D01*
X0285951Y0232383D01*
X0285983Y0232212D01*
X0286010Y0232040D01*
X0286034Y0231868D01*
X0286053Y0231695D01*
X0286068Y0231521D01*
X0286078Y0231348D01*
X0286085Y0231174D01*
X0286087Y0231000D01*
X0286085Y0230826D01*
X0286078Y0230652D01*
X0286068Y0230479D01*
X0286053Y0230305D01*
X0286034Y0230132D01*
X0286010Y0229960D01*
X0285983Y0229788D01*
X0285951Y0229617D01*
X0285915Y0229447D01*
X0285875Y0229278D01*
X0285830Y0229110D01*
X0285782Y0228943D01*
X0285729Y0228777D01*
X0285673Y0228612D01*
X0285612Y0228449D01*
X0285548Y0228288D01*
X0285479Y0228128D01*
X0285407Y0227970D01*
X0285330Y0227814D01*
X0285250Y0227659D01*
X0285166Y0227507D01*
X0285079Y0227357D01*
X0284987Y0227208D01*
X0284893Y0227063D01*
X0284794Y0226919D01*
X0284692Y0226778D01*
X0284587Y0226640D01*
X0284478Y0226504D01*
X0284366Y0226371D01*
X0284251Y0226241D01*
X0284133Y0226113D01*
X0284011Y0225989D01*
X0283887Y0225867D01*
X0283759Y0225749D01*
X0283629Y0225634D01*
X0283496Y0225522D01*
X0283360Y0225413D01*
X0283222Y0225308D01*
X0283081Y0225206D01*
X0282937Y0225107D01*
X0282792Y0225013D01*
X0282643Y0224921D01*
X0282493Y0224834D01*
X0282341Y0224750D01*
X0282186Y0224670D01*
X0282030Y0224593D01*
X0281872Y0224521D01*
X0281712Y0224452D01*
X0281551Y0224388D01*
X0281388Y0224327D01*
X0281223Y0224271D01*
X0281057Y0224218D01*
X0280890Y0224170D01*
X0280722Y0224125D01*
X0280553Y0224085D01*
X0280383Y0224049D01*
X0280212Y0224017D01*
X0280040Y0223990D01*
X0279868Y0223966D01*
X0279695Y0223947D01*
X0279521Y0223932D01*
X0279348Y0223922D01*
X0279174Y0223915D01*
X0279000Y0223913D01*
X0278826Y0223915D01*
X0278652Y0223922D01*
X0278479Y0223932D01*
X0278305Y0223947D01*
X0278132Y0223966D01*
X0277960Y0223990D01*
X0277788Y0224017D01*
X0277617Y0224049D01*
X0277447Y0224085D01*
X0277278Y0224125D01*
X0277110Y0224170D01*
X0276943Y0224218D01*
X0276777Y0224271D01*
X0276612Y0224327D01*
X0276449Y0224388D01*
X0276288Y0224452D01*
X0276128Y0224521D01*
X0275970Y0224593D01*
X0275814Y0224670D01*
X0275659Y0224750D01*
X0275507Y0224834D01*
X0275357Y0224921D01*
X0275208Y0225013D01*
X0275063Y0225107D01*
X0274919Y0225206D01*
X0274778Y0225308D01*
X0274640Y0225413D01*
X0274504Y0225522D01*
X0274371Y0225634D01*
X0274241Y0225749D01*
X0274113Y0225867D01*
X0273989Y0225989D01*
X0273867Y0226113D01*
X0273749Y0226241D01*
X0273634Y0226371D01*
X0273522Y0226504D01*
X0273413Y0226640D01*
X0273308Y0226778D01*
X0273206Y0226919D01*
X0273107Y0227063D01*
X0273013Y0227208D01*
X0272921Y0227357D01*
X0272834Y0227507D01*
X0272750Y0227659D01*
X0272670Y0227814D01*
X0272593Y0227970D01*
X0272521Y0228128D01*
X0272452Y0228288D01*
X0272388Y0228449D01*
X0272327Y0228612D01*
X0272271Y0228777D01*
X0272218Y0228943D01*
X0272170Y0229110D01*
X0272125Y0229278D01*
X0272085Y0229447D01*
X0272049Y0229617D01*
X0272017Y0229788D01*
X0271990Y0229960D01*
X0271966Y0230132D01*
X0271947Y0230305D01*
X0271932Y0230479D01*
X0271922Y0230652D01*
X0271915Y0230826D01*
X0271913Y0231000D01*
X0081913Y0236000D02*
X0081915Y0236174D01*
X0081922Y0236348D01*
X0081932Y0236521D01*
X0081947Y0236695D01*
X0081966Y0236868D01*
X0081990Y0237040D01*
X0082017Y0237212D01*
X0082049Y0237383D01*
X0082085Y0237553D01*
X0082125Y0237722D01*
X0082170Y0237890D01*
X0082218Y0238057D01*
X0082271Y0238223D01*
X0082327Y0238388D01*
X0082388Y0238551D01*
X0082452Y0238712D01*
X0082521Y0238872D01*
X0082593Y0239030D01*
X0082670Y0239186D01*
X0082750Y0239341D01*
X0082834Y0239493D01*
X0082921Y0239643D01*
X0083013Y0239792D01*
X0083107Y0239937D01*
X0083206Y0240081D01*
X0083308Y0240222D01*
X0083413Y0240360D01*
X0083522Y0240496D01*
X0083634Y0240629D01*
X0083749Y0240759D01*
X0083867Y0240887D01*
X0083989Y0241011D01*
X0084113Y0241133D01*
X0084241Y0241251D01*
X0084371Y0241366D01*
X0084504Y0241478D01*
X0084640Y0241587D01*
X0084778Y0241692D01*
X0084919Y0241794D01*
X0085063Y0241893D01*
X0085208Y0241987D01*
X0085357Y0242079D01*
X0085507Y0242166D01*
X0085659Y0242250D01*
X0085814Y0242330D01*
X0085970Y0242407D01*
X0086128Y0242479D01*
X0086288Y0242548D01*
X0086449Y0242612D01*
X0086612Y0242673D01*
X0086777Y0242729D01*
X0086943Y0242782D01*
X0087110Y0242830D01*
X0087278Y0242875D01*
X0087447Y0242915D01*
X0087617Y0242951D01*
X0087788Y0242983D01*
X0087960Y0243010D01*
X0088132Y0243034D01*
X0088305Y0243053D01*
X0088479Y0243068D01*
X0088652Y0243078D01*
X0088826Y0243085D01*
X0089000Y0243087D01*
X0089174Y0243085D01*
X0089348Y0243078D01*
X0089521Y0243068D01*
X0089695Y0243053D01*
X0089868Y0243034D01*
X0090040Y0243010D01*
X0090212Y0242983D01*
X0090383Y0242951D01*
X0090553Y0242915D01*
X0090722Y0242875D01*
X0090890Y0242830D01*
X0091057Y0242782D01*
X0091223Y0242729D01*
X0091388Y0242673D01*
X0091551Y0242612D01*
X0091712Y0242548D01*
X0091872Y0242479D01*
X0092030Y0242407D01*
X0092186Y0242330D01*
X0092341Y0242250D01*
X0092493Y0242166D01*
X0092643Y0242079D01*
X0092792Y0241987D01*
X0092937Y0241893D01*
X0093081Y0241794D01*
X0093222Y0241692D01*
X0093360Y0241587D01*
X0093496Y0241478D01*
X0093629Y0241366D01*
X0093759Y0241251D01*
X0093887Y0241133D01*
X0094011Y0241011D01*
X0094133Y0240887D01*
X0094251Y0240759D01*
X0094366Y0240629D01*
X0094478Y0240496D01*
X0094587Y0240360D01*
X0094692Y0240222D01*
X0094794Y0240081D01*
X0094893Y0239937D01*
X0094987Y0239792D01*
X0095079Y0239643D01*
X0095166Y0239493D01*
X0095250Y0239341D01*
X0095330Y0239186D01*
X0095407Y0239030D01*
X0095479Y0238872D01*
X0095548Y0238712D01*
X0095612Y0238551D01*
X0095673Y0238388D01*
X0095729Y0238223D01*
X0095782Y0238057D01*
X0095830Y0237890D01*
X0095875Y0237722D01*
X0095915Y0237553D01*
X0095951Y0237383D01*
X0095983Y0237212D01*
X0096010Y0237040D01*
X0096034Y0236868D01*
X0096053Y0236695D01*
X0096068Y0236521D01*
X0096078Y0236348D01*
X0096085Y0236174D01*
X0096087Y0236000D01*
X0096085Y0235826D01*
X0096078Y0235652D01*
X0096068Y0235479D01*
X0096053Y0235305D01*
X0096034Y0235132D01*
X0096010Y0234960D01*
X0095983Y0234788D01*
X0095951Y0234617D01*
X0095915Y0234447D01*
X0095875Y0234278D01*
X0095830Y0234110D01*
X0095782Y0233943D01*
X0095729Y0233777D01*
X0095673Y0233612D01*
X0095612Y0233449D01*
X0095548Y0233288D01*
X0095479Y0233128D01*
X0095407Y0232970D01*
X0095330Y0232814D01*
X0095250Y0232659D01*
X0095166Y0232507D01*
X0095079Y0232357D01*
X0094987Y0232208D01*
X0094893Y0232063D01*
X0094794Y0231919D01*
X0094692Y0231778D01*
X0094587Y0231640D01*
X0094478Y0231504D01*
X0094366Y0231371D01*
X0094251Y0231241D01*
X0094133Y0231113D01*
X0094011Y0230989D01*
X0093887Y0230867D01*
X0093759Y0230749D01*
X0093629Y0230634D01*
X0093496Y0230522D01*
X0093360Y0230413D01*
X0093222Y0230308D01*
X0093081Y0230206D01*
X0092937Y0230107D01*
X0092792Y0230013D01*
X0092643Y0229921D01*
X0092493Y0229834D01*
X0092341Y0229750D01*
X0092186Y0229670D01*
X0092030Y0229593D01*
X0091872Y0229521D01*
X0091712Y0229452D01*
X0091551Y0229388D01*
X0091388Y0229327D01*
X0091223Y0229271D01*
X0091057Y0229218D01*
X0090890Y0229170D01*
X0090722Y0229125D01*
X0090553Y0229085D01*
X0090383Y0229049D01*
X0090212Y0229017D01*
X0090040Y0228990D01*
X0089868Y0228966D01*
X0089695Y0228947D01*
X0089521Y0228932D01*
X0089348Y0228922D01*
X0089174Y0228915D01*
X0089000Y0228913D01*
X0088826Y0228915D01*
X0088652Y0228922D01*
X0088479Y0228932D01*
X0088305Y0228947D01*
X0088132Y0228966D01*
X0087960Y0228990D01*
X0087788Y0229017D01*
X0087617Y0229049D01*
X0087447Y0229085D01*
X0087278Y0229125D01*
X0087110Y0229170D01*
X0086943Y0229218D01*
X0086777Y0229271D01*
X0086612Y0229327D01*
X0086449Y0229388D01*
X0086288Y0229452D01*
X0086128Y0229521D01*
X0085970Y0229593D01*
X0085814Y0229670D01*
X0085659Y0229750D01*
X0085507Y0229834D01*
X0085357Y0229921D01*
X0085208Y0230013D01*
X0085063Y0230107D01*
X0084919Y0230206D01*
X0084778Y0230308D01*
X0084640Y0230413D01*
X0084504Y0230522D01*
X0084371Y0230634D01*
X0084241Y0230749D01*
X0084113Y0230867D01*
X0083989Y0230989D01*
X0083867Y0231113D01*
X0083749Y0231241D01*
X0083634Y0231371D01*
X0083522Y0231504D01*
X0083413Y0231640D01*
X0083308Y0231778D01*
X0083206Y0231919D01*
X0083107Y0232063D01*
X0083013Y0232208D01*
X0082921Y0232357D01*
X0082834Y0232507D01*
X0082750Y0232659D01*
X0082670Y0232814D01*
X0082593Y0232970D01*
X0082521Y0233128D01*
X0082452Y0233288D01*
X0082388Y0233449D01*
X0082327Y0233612D01*
X0082271Y0233777D01*
X0082218Y0233943D01*
X0082170Y0234110D01*
X0082125Y0234278D01*
X0082085Y0234447D01*
X0082049Y0234617D01*
X0082017Y0234788D01*
X0081990Y0234960D01*
X0081966Y0235132D01*
X0081947Y0235305D01*
X0081932Y0235479D01*
X0081922Y0235652D01*
X0081915Y0235826D01*
X0081913Y0236000D01*
D11*
X0069000Y0221000D03*
X0069000Y0211000D03*
X0069000Y0201000D03*
X0069000Y0191000D03*
X0069000Y0181000D03*
X0069000Y0171000D03*
X0069000Y0161000D03*
X0069000Y0151000D03*
X0069000Y0141000D03*
X0069000Y0131000D03*
X0069000Y0121000D03*
X0069000Y0111000D03*
X0069000Y0101000D03*
X0069000Y0091000D03*
X0069000Y0081000D03*
X0069000Y0071000D03*
X0069000Y0061000D03*
X0069000Y0051000D03*
X0069000Y0041000D03*
X0059000Y0041000D03*
X0059000Y0051000D03*
X0059000Y0061000D03*
X0059000Y0071000D03*
X0059000Y0081000D03*
X0059000Y0091000D03*
X0059000Y0101000D03*
X0059000Y0111000D03*
X0059000Y0121000D03*
X0059000Y0131000D03*
X0059000Y0141000D03*
X0059000Y0151000D03*
X0059000Y0161000D03*
X0059000Y0171000D03*
X0059000Y0181000D03*
X0059000Y0191000D03*
X0059000Y0201000D03*
X0059000Y0211000D03*
X0059000Y0221000D03*
X0299000Y0221000D03*
X0299000Y0211000D03*
X0299000Y0201000D03*
X0299000Y0191000D03*
X0299000Y0181000D03*
X0299000Y0171000D03*
X0299000Y0161000D03*
X0299000Y0151000D03*
X0299000Y0141000D03*
X0299000Y0131000D03*
X0299000Y0121000D03*
X0299000Y0111000D03*
X0299000Y0101000D03*
X0299000Y0091000D03*
X0299000Y0081000D03*
X0299000Y0071000D03*
X0299000Y0061000D03*
X0299000Y0051000D03*
X0299000Y0041000D03*
X0309000Y0041000D03*
X0309000Y0051000D03*
X0309000Y0061000D03*
X0309000Y0071000D03*
X0309000Y0081000D03*
X0309000Y0091000D03*
X0309000Y0101000D03*
X0309000Y0111000D03*
X0309000Y0121000D03*
X0309000Y0131000D03*
X0309000Y0141000D03*
X0309000Y0151000D03*
X0309000Y0161000D03*
X0309000Y0171000D03*
X0309000Y0181000D03*
X0309000Y0191000D03*
X0309000Y0201000D03*
X0309000Y0211000D03*
X0309000Y0221000D03*
D12*
X0306500Y0231000D03*
X0311500Y0231000D03*
X0321500Y0221000D03*
X0326500Y0221000D03*
X0326500Y0211000D03*
X0321500Y0211000D03*
X0321500Y0201000D03*
X0326500Y0201000D03*
X0326500Y0171000D03*
X0321500Y0171000D03*
X0321500Y0161000D03*
X0326500Y0161000D03*
X0326500Y0151000D03*
X0321500Y0151000D03*
X0321500Y0121000D03*
X0326500Y0121000D03*
X0326500Y0111000D03*
X0321500Y0111000D03*
X0321500Y0101000D03*
X0326500Y0101000D03*
X0326500Y0091000D03*
X0321500Y0091000D03*
X0321500Y0081000D03*
X0326500Y0081000D03*
X0326500Y0061000D03*
X0321500Y0061000D03*
X0286500Y0061000D03*
X0281500Y0061000D03*
X0281500Y0071000D03*
X0286500Y0071000D03*
X0286500Y0081000D03*
X0281500Y0081000D03*
X0281500Y0091000D03*
X0286500Y0091000D03*
X0286500Y0101000D03*
X0281500Y0101000D03*
X0281500Y0111000D03*
X0286500Y0111000D03*
X0286500Y0121000D03*
X0281500Y0121000D03*
X0281500Y0131000D03*
X0286500Y0131000D03*
X0286500Y0141000D03*
X0281500Y0141000D03*
X0281500Y0151000D03*
X0286500Y0151000D03*
X0286500Y0161000D03*
X0281500Y0161000D03*
X0281500Y0171000D03*
X0286500Y0171000D03*
X0286500Y0201000D03*
X0281500Y0201000D03*
X0281500Y0211000D03*
X0286500Y0211000D03*
X0286500Y0051000D03*
X0281500Y0051000D03*
X0281500Y0041000D03*
X0286500Y0041000D03*
X0086500Y0041000D03*
X0081500Y0041000D03*
X0081500Y0051000D03*
X0086500Y0051000D03*
X0086500Y0061000D03*
X0081500Y0061000D03*
X0081500Y0071000D03*
X0086500Y0071000D03*
X0086500Y0081000D03*
X0081500Y0081000D03*
X0081500Y0091000D03*
X0086500Y0091000D03*
X0086500Y0111000D03*
X0081500Y0111000D03*
X0046500Y0111000D03*
X0041500Y0111000D03*
X0041500Y0121000D03*
X0046500Y0121000D03*
X0046500Y0101000D03*
X0041500Y0101000D03*
X0041500Y0091000D03*
X0046500Y0091000D03*
X0046500Y0081000D03*
X0041500Y0081000D03*
X0041500Y0071000D03*
X0046500Y0071000D03*
X0046500Y0051000D03*
X0041500Y0051000D03*
X0041500Y0041000D03*
X0046500Y0041000D03*
X0046500Y0141000D03*
X0041500Y0141000D03*
X0041500Y0151000D03*
X0046500Y0151000D03*
X0046500Y0161000D03*
X0041500Y0161000D03*
X0041500Y0191000D03*
X0046500Y0191000D03*
X0046500Y0211000D03*
X0041500Y0211000D03*
X0041500Y0221000D03*
X0046500Y0221000D03*
X0081500Y0221000D03*
X0086500Y0221000D03*
X0086500Y0211000D03*
X0081500Y0211000D03*
X0081500Y0161000D03*
X0086500Y0161000D03*
D13*
X0086000Y0161000D02*
X0082000Y0161000D01*
X0081500Y0161000D02*
X0069000Y0161000D01*
X0059000Y0161000D02*
X0046500Y0161000D01*
X0046000Y0161000D02*
X0042000Y0161000D01*
X0042000Y0151000D02*
X0046000Y0151000D01*
X0046500Y0151000D02*
X0059000Y0151000D01*
X0059000Y0141000D02*
X0046500Y0141000D01*
X0046000Y0141000D02*
X0042000Y0141000D01*
X0042000Y0121000D02*
X0046000Y0121000D01*
X0046500Y0121000D02*
X0059000Y0121000D01*
X0059000Y0111000D02*
X0046500Y0111000D01*
X0046000Y0111000D02*
X0042000Y0111000D01*
X0042000Y0101000D02*
X0046000Y0101000D01*
X0046500Y0101000D02*
X0059000Y0101000D01*
X0059000Y0091000D02*
X0046500Y0091000D01*
X0046000Y0091000D02*
X0042000Y0091000D01*
X0042000Y0081000D02*
X0046000Y0081000D01*
X0046500Y0081000D02*
X0059000Y0081000D01*
X0059000Y0071000D02*
X0046500Y0071000D01*
X0046000Y0071000D02*
X0042000Y0071000D01*
X0042000Y0051000D02*
X0046000Y0051000D01*
X0046500Y0051000D02*
X0059000Y0051000D01*
X0059000Y0041000D02*
X0046500Y0041000D01*
X0046000Y0041000D02*
X0042000Y0041000D01*
X0069000Y0041000D02*
X0081500Y0041000D01*
X0082000Y0041000D02*
X0086000Y0041000D01*
X0086000Y0051000D02*
X0082000Y0051000D01*
X0081500Y0051000D02*
X0069000Y0051000D01*
X0069000Y0061000D02*
X0081500Y0061000D01*
X0082000Y0061000D02*
X0086000Y0061000D01*
X0086000Y0071000D02*
X0082000Y0071000D01*
X0081500Y0071000D02*
X0069000Y0071000D01*
X0069000Y0081000D02*
X0081500Y0081000D01*
X0082000Y0081000D02*
X0086000Y0081000D01*
X0086000Y0091000D02*
X0082000Y0091000D01*
X0081500Y0091000D02*
X0069000Y0091000D01*
X0069000Y0111000D02*
X0081500Y0111000D01*
X0082000Y0111000D02*
X0086000Y0111000D01*
X0059000Y0191000D02*
X0046500Y0191000D01*
X0046000Y0191000D02*
X0042000Y0191000D01*
X0042000Y0211000D02*
X0046000Y0211000D01*
X0046500Y0211000D02*
X0059000Y0211000D01*
X0059000Y0221000D02*
X0046500Y0221000D01*
X0046000Y0221000D02*
X0042000Y0221000D01*
X0069000Y0221000D02*
X0081500Y0221000D01*
X0082000Y0221000D02*
X0086000Y0221000D01*
X0086000Y0211000D02*
X0082000Y0211000D01*
X0081500Y0211000D02*
X0069000Y0211000D01*
X0282000Y0211000D02*
X0286000Y0211000D01*
X0286500Y0211000D02*
X0299000Y0211000D01*
X0299000Y0221000D02*
X0299000Y0228500D01*
X0301500Y0231000D01*
X0306500Y0231000D01*
X0307000Y0231000D02*
X0311000Y0231000D01*
X0309000Y0221000D02*
X0321500Y0221000D01*
X0322000Y0221000D02*
X0326000Y0221000D01*
X0326000Y0211000D02*
X0322000Y0211000D01*
X0321500Y0211000D02*
X0309000Y0211000D01*
X0309000Y0201000D02*
X0321500Y0201000D01*
X0322000Y0201000D02*
X0326000Y0201000D01*
X0299000Y0201000D02*
X0286500Y0201000D01*
X0286000Y0201000D02*
X0282000Y0201000D01*
X0282000Y0171000D02*
X0286000Y0171000D01*
X0286500Y0171000D02*
X0299000Y0171000D01*
X0299000Y0161000D02*
X0286500Y0161000D01*
X0286000Y0161000D02*
X0282000Y0161000D01*
X0282000Y0151000D02*
X0286000Y0151000D01*
X0286500Y0151000D02*
X0299000Y0151000D01*
X0299000Y0141000D02*
X0286500Y0141000D01*
X0286000Y0141000D02*
X0282000Y0141000D01*
X0282000Y0131000D02*
X0286000Y0131000D01*
X0286500Y0131000D02*
X0299000Y0131000D01*
X0299000Y0121000D02*
X0286500Y0121000D01*
X0286000Y0121000D02*
X0282000Y0121000D01*
X0282000Y0111000D02*
X0286000Y0111000D01*
X0286500Y0111000D02*
X0299000Y0111000D01*
X0299000Y0101000D02*
X0286500Y0101000D01*
X0286000Y0101000D02*
X0282000Y0101000D01*
X0282000Y0091000D02*
X0286000Y0091000D01*
X0286500Y0091000D02*
X0299000Y0091000D01*
X0299000Y0081000D02*
X0286500Y0081000D01*
X0286000Y0081000D02*
X0282000Y0081000D01*
X0282000Y0071000D02*
X0286000Y0071000D01*
X0286500Y0071000D02*
X0299000Y0071000D01*
X0299000Y0061000D02*
X0286500Y0061000D01*
X0286000Y0061000D02*
X0282000Y0061000D01*
X0282000Y0051000D02*
X0286000Y0051000D01*
X0286500Y0051000D02*
X0299000Y0051000D01*
X0299000Y0041000D02*
X0286500Y0041000D01*
X0286000Y0041000D02*
X0282000Y0041000D01*
X0309000Y0061000D02*
X0321500Y0061000D01*
X0322000Y0061000D02*
X0326000Y0061000D01*
X0326000Y0081000D02*
X0322000Y0081000D01*
X0321500Y0081000D02*
X0309000Y0081000D01*
X0309000Y0091000D02*
X0321500Y0091000D01*
X0322000Y0091000D02*
X0326000Y0091000D01*
X0326000Y0101000D02*
X0322000Y0101000D01*
X0321500Y0101000D02*
X0309000Y0101000D01*
X0309000Y0111000D02*
X0321500Y0111000D01*
X0322000Y0111000D02*
X0326000Y0111000D01*
X0326000Y0121000D02*
X0322000Y0121000D01*
X0321500Y0121000D02*
X0309000Y0121000D01*
X0309000Y0151000D02*
X0321500Y0151000D01*
X0322000Y0151000D02*
X0326000Y0151000D01*
X0326000Y0161000D02*
X0322000Y0161000D01*
X0321500Y0161000D02*
X0309000Y0161000D01*
X0309000Y0171000D02*
X0321500Y0171000D01*
X0322000Y0171000D02*
X0326000Y0171000D01*
M02*
