G75*
%MOIN*%
%OFA0B0*%
%FSLAX25Y25*%
%IPPOS*%
%LPD*%
%AMOC8*
5,1,8,0,0,1.08239X$1,22.5*
%
%ADD10C,0.00800*%
D10*
X0030792Y0109527D02*
X0030091Y0110228D01*
X0030091Y0113030D01*
X0030792Y0113731D01*
X0032193Y0113731D01*
X0032894Y0113030D01*
X0032894Y0112330D01*
X0032193Y0111629D01*
X0030091Y0111629D01*
X0030792Y0109527D02*
X0032193Y0109527D01*
X0032894Y0110228D01*
X0034695Y0111629D02*
X0037498Y0111629D01*
X0035396Y0113731D01*
X0035396Y0109527D01*
X0039299Y0110228D02*
X0040000Y0109527D01*
X0042102Y0109527D01*
X0042102Y0113731D01*
X0040000Y0113731D01*
X0039299Y0113030D01*
X0039299Y0112330D01*
X0040000Y0111629D01*
X0042102Y0111629D01*
X0043903Y0110928D02*
X0043903Y0110228D01*
X0044604Y0109527D01*
X0046005Y0109527D01*
X0046705Y0110228D01*
X0046005Y0111629D02*
X0044604Y0111629D01*
X0043903Y0110928D01*
X0043903Y0113030D02*
X0044604Y0113731D01*
X0046005Y0113731D01*
X0046705Y0113030D01*
X0046705Y0112330D01*
X0046005Y0111629D01*
X0040000Y0111629D02*
X0039299Y0110928D01*
X0039299Y0110228D01*
X0040000Y0119527D02*
X0039299Y0120228D01*
X0039299Y0120928D01*
X0040000Y0121629D01*
X0042102Y0121629D01*
X0043903Y0120928D02*
X0043903Y0120228D01*
X0044604Y0119527D01*
X0046005Y0119527D01*
X0046705Y0120228D01*
X0046005Y0121629D02*
X0044604Y0121629D01*
X0043903Y0120928D01*
X0043903Y0123030D02*
X0044604Y0123731D01*
X0046005Y0123731D01*
X0046705Y0123030D01*
X0046705Y0122330D01*
X0046005Y0121629D01*
X0042102Y0119527D02*
X0040000Y0119527D01*
X0042102Y0119527D02*
X0042102Y0123731D01*
X0040000Y0123731D01*
X0039299Y0123030D01*
X0039299Y0122330D01*
X0040000Y0121629D01*
X0037498Y0121629D02*
X0036096Y0122330D01*
X0035396Y0122330D01*
X0034695Y0121629D01*
X0034695Y0120228D01*
X0035396Y0119527D01*
X0036797Y0119527D01*
X0037498Y0120228D01*
X0037498Y0121629D02*
X0037498Y0123731D01*
X0034695Y0123731D01*
X0032894Y0123030D02*
X0032193Y0123731D01*
X0030792Y0123731D01*
X0030091Y0123030D01*
X0032894Y0120228D01*
X0032193Y0119527D01*
X0030792Y0119527D01*
X0030091Y0120228D01*
X0030091Y0123030D01*
X0032894Y0123030D02*
X0032894Y0120228D01*
X0030792Y0139527D02*
X0030792Y0143731D01*
X0032894Y0141629D01*
X0030091Y0141629D01*
X0034695Y0140928D02*
X0034695Y0140228D01*
X0035396Y0139527D01*
X0036797Y0139527D01*
X0037498Y0140228D01*
X0039299Y0140228D02*
X0040000Y0139527D01*
X0042102Y0139527D01*
X0042102Y0143731D01*
X0040000Y0143731D01*
X0039299Y0143030D01*
X0039299Y0142330D01*
X0040000Y0141629D01*
X0042102Y0141629D01*
X0043903Y0140928D02*
X0043903Y0140228D01*
X0044604Y0139527D01*
X0046005Y0139527D01*
X0046705Y0140228D01*
X0046005Y0141629D02*
X0044604Y0141629D01*
X0043903Y0140928D01*
X0043903Y0143030D02*
X0044604Y0143731D01*
X0046005Y0143731D01*
X0046705Y0143030D01*
X0046705Y0142330D01*
X0046005Y0141629D01*
X0040000Y0141629D02*
X0039299Y0140928D01*
X0039299Y0140228D01*
X0037498Y0143030D02*
X0036797Y0143731D01*
X0035396Y0143731D01*
X0034695Y0143030D01*
X0034695Y0142330D01*
X0035396Y0141629D01*
X0034695Y0140928D01*
X0035396Y0141629D02*
X0036096Y0141629D01*
X0035396Y0149527D02*
X0036797Y0149527D01*
X0037498Y0150228D01*
X0039299Y0150228D02*
X0040000Y0149527D01*
X0042102Y0149527D01*
X0042102Y0153731D01*
X0040000Y0153731D01*
X0039299Y0153030D01*
X0039299Y0152330D01*
X0040000Y0151629D01*
X0042102Y0151629D01*
X0043903Y0150928D02*
X0043903Y0150228D01*
X0044604Y0149527D01*
X0046005Y0149527D01*
X0046705Y0150228D01*
X0046005Y0151629D02*
X0044604Y0151629D01*
X0043903Y0150928D01*
X0043903Y0153030D02*
X0044604Y0153731D01*
X0046005Y0153731D01*
X0046705Y0153030D01*
X0046705Y0152330D01*
X0046005Y0151629D01*
X0040000Y0151629D02*
X0039299Y0150928D01*
X0039299Y0150228D01*
X0037498Y0153030D02*
X0036797Y0153731D01*
X0035396Y0153731D01*
X0034695Y0153030D01*
X0034695Y0152330D01*
X0035396Y0151629D01*
X0034695Y0150928D01*
X0034695Y0150228D01*
X0035396Y0149527D01*
X0035396Y0151629D02*
X0036096Y0151629D01*
X0032894Y0151629D02*
X0032894Y0153731D01*
X0030091Y0153731D01*
X0030792Y0152330D02*
X0030091Y0151629D01*
X0030091Y0150228D01*
X0030792Y0149527D01*
X0032193Y0149527D01*
X0032894Y0150228D01*
X0032894Y0151629D02*
X0031493Y0152330D01*
X0030792Y0152330D01*
X0032894Y0159527D02*
X0032894Y0160228D01*
X0030091Y0163030D01*
X0030091Y0163731D01*
X0032894Y0163731D01*
X0034695Y0163030D02*
X0034695Y0162330D01*
X0035396Y0161629D01*
X0034695Y0160928D01*
X0034695Y0160228D01*
X0035396Y0159527D01*
X0036797Y0159527D01*
X0037498Y0160228D01*
X0039299Y0160228D02*
X0040000Y0159527D01*
X0042102Y0159527D01*
X0042102Y0163731D01*
X0040000Y0163731D01*
X0039299Y0163030D01*
X0039299Y0162330D01*
X0040000Y0161629D01*
X0042102Y0161629D01*
X0043903Y0160928D02*
X0043903Y0160228D01*
X0044604Y0159527D01*
X0046005Y0159527D01*
X0046705Y0160228D01*
X0046005Y0161629D02*
X0044604Y0161629D01*
X0043903Y0160928D01*
X0043903Y0163030D02*
X0044604Y0163731D01*
X0046005Y0163731D01*
X0046705Y0163030D01*
X0046705Y0162330D01*
X0046005Y0161629D01*
X0040000Y0161629D02*
X0039299Y0160928D01*
X0039299Y0160228D01*
X0037498Y0163030D02*
X0036797Y0163731D01*
X0035396Y0163731D01*
X0034695Y0163030D01*
X0035396Y0161629D02*
X0036096Y0161629D01*
X0035396Y0169527D02*
X0036797Y0169527D01*
X0037498Y0170228D01*
X0039299Y0170228D02*
X0040000Y0169527D01*
X0042102Y0169527D01*
X0042102Y0173731D01*
X0040000Y0173731D01*
X0039299Y0173030D01*
X0039299Y0172330D01*
X0040000Y0171629D01*
X0042102Y0171629D01*
X0043903Y0170928D02*
X0043903Y0170228D01*
X0044604Y0169527D01*
X0046005Y0169527D01*
X0046705Y0170228D01*
X0046005Y0171629D02*
X0044604Y0171629D01*
X0043903Y0170928D01*
X0043903Y0173030D02*
X0044604Y0173731D01*
X0046005Y0173731D01*
X0046705Y0173030D01*
X0046705Y0172330D01*
X0046005Y0171629D01*
X0040000Y0171629D02*
X0039299Y0170928D01*
X0039299Y0170228D01*
X0037498Y0173030D02*
X0036797Y0173731D01*
X0035396Y0173731D01*
X0034695Y0173030D01*
X0034695Y0172330D01*
X0035396Y0171629D01*
X0034695Y0170928D01*
X0034695Y0170228D01*
X0035396Y0169527D01*
X0035396Y0171629D02*
X0036096Y0171629D01*
X0032894Y0170928D02*
X0032193Y0171629D01*
X0030792Y0171629D01*
X0030091Y0170928D01*
X0030091Y0170228D01*
X0030792Y0169527D01*
X0032193Y0169527D01*
X0032894Y0170228D01*
X0032894Y0170928D01*
X0032193Y0171629D02*
X0032894Y0172330D01*
X0032894Y0173030D01*
X0032193Y0173731D01*
X0030792Y0173731D01*
X0030091Y0173030D01*
X0030091Y0172330D01*
X0030792Y0171629D01*
X0030792Y0179527D02*
X0030091Y0180228D01*
X0030091Y0183030D01*
X0030792Y0183731D01*
X0032894Y0181629D01*
X0030091Y0181629D01*
X0032193Y0181629D01*
X0032894Y0182330D01*
X0032894Y0183030D01*
X0032193Y0183731D01*
X0030792Y0183731D01*
X0030792Y0179527D01*
X0032193Y0179527D01*
X0032894Y0180228D01*
X0034695Y0180228D02*
X0035396Y0179527D01*
X0036797Y0179527D01*
X0037498Y0180228D01*
X0037498Y0179527D02*
X0034695Y0179527D01*
X0034695Y0180228D02*
X0034695Y0180928D01*
X0035396Y0181629D01*
X0036096Y0181629D01*
X0035396Y0181629D02*
X0034695Y0182330D01*
X0034695Y0183030D01*
X0035396Y0183731D01*
X0036797Y0183731D01*
X0037498Y0183030D01*
X0036797Y0183731D01*
X0035396Y0183731D01*
X0034695Y0183030D01*
X0034695Y0182330D01*
X0037498Y0179527D01*
X0039299Y0180228D02*
X0040000Y0179527D01*
X0042102Y0179527D01*
X0040000Y0179527D01*
X0039299Y0180228D01*
X0039299Y0180928D01*
X0040000Y0181629D01*
X0042102Y0181629D01*
X0040000Y0181629D01*
X0039299Y0180928D01*
X0039299Y0180228D01*
X0040000Y0181629D02*
X0039299Y0182330D01*
X0039299Y0183030D01*
X0040000Y0183731D01*
X0039299Y0183030D01*
X0039299Y0182330D01*
X0040000Y0181629D01*
X0040000Y0183731D02*
X0042102Y0183731D01*
X0040000Y0183731D01*
X0042102Y0183731D02*
X0042102Y0179527D01*
X0042102Y0183731D01*
X0043903Y0183030D02*
X0044604Y0183731D01*
X0046005Y0183731D01*
X0046705Y0183030D01*
X0046705Y0182330D01*
X0046005Y0181629D01*
X0044604Y0181629D01*
X0043903Y0180928D01*
X0043903Y0180228D01*
X0044604Y0179527D01*
X0046005Y0179527D01*
X0046706Y0180228D01*
X0046705Y0180228D02*
X0046005Y0179527D01*
X0044604Y0179527D01*
X0043903Y0180228D01*
X0043903Y0180928D01*
X0044604Y0181629D01*
X0046005Y0181629D01*
X0046706Y0182330D01*
X0046706Y0183030D01*
X0046005Y0183731D01*
X0044604Y0183731D01*
X0043903Y0183030D01*
X0044604Y0199527D02*
X0046005Y0199527D01*
X0046706Y0200228D01*
X0046005Y0201629D02*
X0044604Y0201629D01*
X0043903Y0200928D01*
X0043903Y0200228D01*
X0044604Y0199527D01*
X0042102Y0199527D02*
X0042102Y0203731D01*
X0040000Y0203731D01*
X0039299Y0203030D01*
X0039299Y0202330D01*
X0040000Y0201629D01*
X0042102Y0201629D01*
X0042102Y0199527D02*
X0040000Y0199527D01*
X0039299Y0200228D01*
X0039299Y0200928D01*
X0040000Y0201629D01*
X0037498Y0202330D02*
X0036096Y0203731D01*
X0036096Y0199527D01*
X0034695Y0199527D02*
X0037498Y0199527D01*
X0032894Y0200228D02*
X0032193Y0199527D01*
X0030792Y0199527D01*
X0030091Y0200228D01*
X0030091Y0200928D01*
X0030792Y0201629D01*
X0032894Y0201629D01*
X0032894Y0200228D01*
X0032894Y0201629D02*
X0031493Y0203030D01*
X0030091Y0203731D01*
X0030792Y0209527D02*
X0032193Y0209527D01*
X0032894Y0210228D01*
X0032894Y0211629D02*
X0031493Y0212330D01*
X0030792Y0212330D01*
X0030091Y0211629D01*
X0030091Y0210228D01*
X0030792Y0209527D01*
X0032894Y0211629D02*
X0032894Y0213731D01*
X0030091Y0213731D01*
X0030792Y0219527D02*
X0030792Y0223731D01*
X0032894Y0221629D01*
X0030091Y0221629D01*
X0034695Y0219527D02*
X0037498Y0219527D01*
X0036096Y0219527D02*
X0036096Y0223731D01*
X0037498Y0222330D01*
X0039299Y0222330D02*
X0040000Y0221629D01*
X0042102Y0221629D01*
X0043903Y0220928D02*
X0043903Y0220228D01*
X0044604Y0219527D01*
X0046005Y0219527D01*
X0046706Y0220228D01*
X0046005Y0221629D02*
X0044604Y0221629D01*
X0043903Y0220928D01*
X0043903Y0223030D02*
X0044604Y0223731D01*
X0046005Y0223731D01*
X0046706Y0223030D01*
X0046706Y0222330D01*
X0046005Y0221629D01*
X0042102Y0219527D02*
X0040000Y0219527D01*
X0039299Y0220228D01*
X0039299Y0220928D01*
X0040000Y0221629D01*
X0039299Y0222330D02*
X0039299Y0223030D01*
X0040000Y0223731D01*
X0042102Y0223731D01*
X0042102Y0219527D01*
X0042102Y0213731D02*
X0040000Y0213731D01*
X0039299Y0213030D01*
X0039299Y0212330D01*
X0040000Y0211629D01*
X0042102Y0211629D01*
X0043903Y0210928D02*
X0043903Y0210228D01*
X0044604Y0209527D01*
X0046005Y0209527D01*
X0046706Y0210228D01*
X0046005Y0211629D02*
X0044604Y0211629D01*
X0043903Y0210928D01*
X0043903Y0213030D02*
X0044604Y0213731D01*
X0046005Y0213731D01*
X0046706Y0213030D01*
X0046706Y0212330D01*
X0046005Y0211629D01*
X0042102Y0209527D02*
X0040000Y0209527D01*
X0039299Y0210228D01*
X0039299Y0210928D01*
X0040000Y0211629D01*
X0037498Y0212330D02*
X0036096Y0213731D01*
X0036096Y0209527D01*
X0034695Y0209527D02*
X0037498Y0209527D01*
X0042102Y0209527D02*
X0042102Y0213731D01*
X0044604Y0203731D02*
X0046005Y0203731D01*
X0046706Y0203030D01*
X0046706Y0202330D01*
X0046005Y0201629D01*
X0043903Y0203030D02*
X0044604Y0203731D01*
X0071091Y0230527D02*
X0073894Y0230527D01*
X0071091Y0233330D01*
X0071091Y0234030D01*
X0071792Y0234731D01*
X0073193Y0234731D01*
X0073894Y0234030D01*
X0075695Y0234030D02*
X0075695Y0233330D01*
X0076396Y0232629D01*
X0075695Y0231928D01*
X0075695Y0231228D01*
X0076396Y0230527D01*
X0077797Y0230527D01*
X0078498Y0231228D01*
X0080299Y0231228D02*
X0081000Y0230527D01*
X0083102Y0230527D01*
X0083102Y0234731D01*
X0081000Y0234731D01*
X0080299Y0234030D01*
X0080299Y0233330D01*
X0081000Y0232629D01*
X0083102Y0232629D01*
X0084903Y0231928D02*
X0084903Y0231228D01*
X0085604Y0230527D01*
X0087005Y0230527D01*
X0087706Y0231228D01*
X0087005Y0232629D02*
X0085604Y0232629D01*
X0084903Y0231928D01*
X0084903Y0234030D02*
X0085604Y0234731D01*
X0087005Y0234731D01*
X0087706Y0234030D01*
X0087706Y0233330D01*
X0087005Y0232629D01*
X0081000Y0232629D02*
X0080299Y0231928D01*
X0080299Y0231228D01*
X0078498Y0234030D02*
X0077797Y0234731D01*
X0076396Y0234731D01*
X0075695Y0234030D01*
X0076396Y0232629D02*
X0077096Y0232629D01*
X0076797Y0269527D02*
X0075396Y0269527D01*
X0074695Y0270228D01*
X0074695Y0270928D01*
X0075396Y0271629D01*
X0076096Y0271629D01*
X0075396Y0271629D02*
X0074695Y0272330D01*
X0074695Y0273030D01*
X0075396Y0273731D01*
X0076797Y0273731D01*
X0077498Y0273030D01*
X0079299Y0273030D02*
X0079299Y0272330D01*
X0080000Y0271629D01*
X0082102Y0271629D01*
X0083903Y0270928D02*
X0083903Y0270228D01*
X0084604Y0269527D01*
X0086005Y0269527D01*
X0086706Y0270228D01*
X0086005Y0271629D02*
X0084604Y0271629D01*
X0083903Y0270928D01*
X0083903Y0273030D02*
X0084604Y0273731D01*
X0086005Y0273731D01*
X0086706Y0273030D01*
X0086706Y0272330D01*
X0086005Y0271629D01*
X0082102Y0269527D02*
X0080000Y0269527D01*
X0079299Y0270228D01*
X0079299Y0270928D01*
X0080000Y0271629D01*
X0079299Y0273030D02*
X0080000Y0273731D01*
X0082102Y0273731D01*
X0082102Y0269527D01*
X0077498Y0270228D02*
X0076797Y0269527D01*
X0072894Y0270228D02*
X0072193Y0269527D01*
X0070792Y0269527D01*
X0070091Y0270228D01*
X0070091Y0270928D01*
X0070792Y0271629D01*
X0072894Y0271629D01*
X0072894Y0270228D01*
X0072894Y0271629D02*
X0071493Y0273030D01*
X0070091Y0273731D01*
X0070091Y0279527D02*
X0072894Y0279527D01*
X0071493Y0279527D02*
X0071493Y0283731D01*
X0072894Y0282330D01*
X0074695Y0281629D02*
X0077498Y0281629D01*
X0075396Y0283731D01*
X0075396Y0279527D01*
X0079299Y0280228D02*
X0080000Y0279527D01*
X0082102Y0279527D01*
X0082102Y0283731D01*
X0080000Y0283731D01*
X0079299Y0283030D01*
X0079299Y0282330D01*
X0080000Y0281629D01*
X0082102Y0281629D01*
X0083903Y0280928D02*
X0083903Y0280228D01*
X0084604Y0279527D01*
X0086005Y0279527D01*
X0086706Y0280228D01*
X0086005Y0281629D02*
X0084604Y0281629D01*
X0083903Y0280928D01*
X0083903Y0283030D02*
X0084604Y0283731D01*
X0086005Y0283731D01*
X0086706Y0283030D01*
X0086706Y0282330D01*
X0086005Y0281629D01*
X0080000Y0281629D02*
X0079299Y0280928D01*
X0079299Y0280228D01*
X0046705Y0280228D02*
X0046005Y0279527D01*
X0044604Y0279527D01*
X0043903Y0280228D01*
X0043903Y0280928D01*
X0044604Y0281629D01*
X0046005Y0281629D01*
X0046705Y0282330D01*
X0046705Y0283030D01*
X0046005Y0283731D01*
X0044604Y0283731D01*
X0043903Y0283030D01*
X0042102Y0283731D02*
X0040000Y0283731D01*
X0039299Y0283030D01*
X0039299Y0282330D01*
X0040000Y0281629D01*
X0042102Y0281629D01*
X0042102Y0279527D02*
X0040000Y0279527D01*
X0039299Y0280228D01*
X0039299Y0280928D01*
X0040000Y0281629D01*
X0037498Y0281629D02*
X0034695Y0281629D01*
X0035396Y0279527D02*
X0035396Y0283731D01*
X0037498Y0281629D01*
X0032894Y0280228D02*
X0030091Y0283030D01*
X0030091Y0280228D01*
X0030792Y0279527D01*
X0032193Y0279527D01*
X0032894Y0280228D01*
X0032894Y0283030D01*
X0032193Y0283731D01*
X0030792Y0283731D01*
X0030091Y0283030D01*
X0030091Y0289527D02*
X0032894Y0289527D01*
X0030091Y0292330D01*
X0030091Y0293030D01*
X0030792Y0293731D01*
X0032193Y0293731D01*
X0032894Y0293030D01*
X0034695Y0291629D02*
X0037498Y0291629D01*
X0035396Y0293731D01*
X0035396Y0289527D01*
X0039299Y0290228D02*
X0040000Y0289527D01*
X0042102Y0289527D01*
X0042102Y0293731D01*
X0040000Y0293731D01*
X0039299Y0293030D01*
X0039299Y0292330D01*
X0040000Y0291629D01*
X0042102Y0291629D01*
X0043903Y0290928D02*
X0043903Y0290228D01*
X0044604Y0289527D01*
X0046005Y0289527D01*
X0046705Y0290228D01*
X0046005Y0291629D02*
X0044604Y0291629D01*
X0043903Y0290928D01*
X0043903Y0293030D02*
X0044604Y0293731D01*
X0046005Y0293731D01*
X0046705Y0293030D01*
X0046705Y0292330D01*
X0046005Y0291629D01*
X0040000Y0291629D02*
X0039299Y0290928D01*
X0039299Y0290228D01*
X0042102Y0283731D02*
X0042102Y0279527D01*
X0042102Y0263731D02*
X0040000Y0263731D01*
X0039299Y0263030D01*
X0039299Y0262330D01*
X0040000Y0261629D01*
X0042102Y0261629D01*
X0043903Y0260928D02*
X0043903Y0260228D01*
X0044604Y0259527D01*
X0046005Y0259527D01*
X0046705Y0260228D01*
X0046005Y0261629D02*
X0044604Y0261629D01*
X0043903Y0260928D01*
X0043903Y0263030D02*
X0044604Y0263731D01*
X0046005Y0263731D01*
X0046705Y0263030D01*
X0046705Y0262330D01*
X0046005Y0261629D01*
X0042102Y0259527D02*
X0040000Y0259527D01*
X0039299Y0260228D01*
X0039299Y0260928D01*
X0040000Y0261629D01*
X0037498Y0260228D02*
X0036797Y0259527D01*
X0035396Y0259527D01*
X0034695Y0260228D01*
X0034695Y0260928D01*
X0035396Y0261629D01*
X0036096Y0261629D01*
X0035396Y0261629D02*
X0034695Y0262330D01*
X0034695Y0263030D01*
X0035396Y0263731D01*
X0036797Y0263731D01*
X0037498Y0263030D01*
X0032894Y0263030D02*
X0032193Y0263731D01*
X0030792Y0263731D01*
X0030091Y0263030D01*
X0030091Y0262330D01*
X0030792Y0261629D01*
X0030091Y0260928D01*
X0030091Y0260228D01*
X0030792Y0259527D01*
X0032193Y0259527D01*
X0032894Y0260228D01*
X0031493Y0261629D02*
X0030792Y0261629D01*
X0042102Y0259527D02*
X0042102Y0263731D01*
X0073794Y0163731D02*
X0073794Y0159527D01*
X0072393Y0159527D02*
X0075196Y0159527D01*
X0076997Y0160228D02*
X0077698Y0159527D01*
X0079800Y0159527D01*
X0079800Y0163731D01*
X0077698Y0163731D01*
X0076997Y0163030D01*
X0076997Y0162330D01*
X0077698Y0161629D01*
X0079800Y0161629D01*
X0081601Y0160928D02*
X0081601Y0160228D01*
X0082302Y0159527D01*
X0083703Y0159527D01*
X0084404Y0160228D01*
X0083703Y0161629D02*
X0084404Y0162330D01*
X0084404Y0163030D01*
X0083703Y0163731D01*
X0082302Y0163731D01*
X0081601Y0163030D01*
X0082302Y0161629D02*
X0081601Y0160928D01*
X0082302Y0161629D02*
X0083703Y0161629D01*
X0077698Y0161629D02*
X0076997Y0160928D01*
X0076997Y0160228D01*
X0075196Y0162330D02*
X0073794Y0163731D01*
X0073094Y0153731D02*
X0074495Y0153731D01*
X0075196Y0153030D01*
X0076997Y0153030D02*
X0077698Y0153731D01*
X0079800Y0153731D01*
X0079800Y0149527D01*
X0077698Y0149527D01*
X0076997Y0150228D01*
X0076997Y0150928D01*
X0077698Y0151629D01*
X0079800Y0151629D01*
X0081601Y0150928D02*
X0081601Y0150228D01*
X0082302Y0149527D01*
X0083703Y0149527D01*
X0084404Y0150228D01*
X0083703Y0151629D02*
X0084404Y0152330D01*
X0084404Y0153030D01*
X0083703Y0153731D01*
X0082302Y0153731D01*
X0081601Y0153030D01*
X0082302Y0151629D02*
X0081601Y0150928D01*
X0082302Y0151629D02*
X0083703Y0151629D01*
X0077698Y0151629D02*
X0076997Y0152330D01*
X0076997Y0153030D01*
X0075196Y0149527D02*
X0072393Y0152330D01*
X0072393Y0153030D01*
X0073094Y0153731D01*
X0072393Y0149527D02*
X0075196Y0149527D01*
X0075196Y0143731D02*
X0075196Y0141629D01*
X0073794Y0142330D01*
X0073094Y0142330D01*
X0072393Y0141629D01*
X0072393Y0140228D01*
X0073094Y0139527D01*
X0074495Y0139527D01*
X0075196Y0140228D01*
X0076997Y0140228D02*
X0077698Y0139527D01*
X0079800Y0139527D01*
X0079800Y0143731D01*
X0077698Y0143731D01*
X0076997Y0143030D01*
X0076997Y0142330D01*
X0077698Y0141629D01*
X0079800Y0141629D01*
X0081601Y0140928D02*
X0081601Y0140228D01*
X0082302Y0139527D01*
X0083703Y0139527D01*
X0084404Y0140228D01*
X0083703Y0141629D02*
X0084404Y0142330D01*
X0084404Y0143030D01*
X0083703Y0143731D01*
X0082302Y0143731D01*
X0081601Y0143030D01*
X0082302Y0141629D02*
X0081601Y0140928D01*
X0082302Y0141629D02*
X0083703Y0141629D01*
X0077698Y0141629D02*
X0076997Y0140928D01*
X0076997Y0140228D01*
X0075196Y0143731D02*
X0072393Y0143731D01*
X0072894Y0133731D02*
X0070091Y0133731D01*
X0070091Y0133030D01*
X0072894Y0130228D01*
X0072894Y0129527D01*
X0074695Y0129527D02*
X0077498Y0129527D01*
X0076096Y0129527D02*
X0076096Y0133731D01*
X0077498Y0132330D01*
X0079299Y0132330D02*
X0080000Y0131629D01*
X0082102Y0131629D01*
X0083903Y0130928D02*
X0083903Y0130228D01*
X0084604Y0129527D01*
X0086005Y0129527D01*
X0086705Y0130228D01*
X0086005Y0131629D02*
X0084604Y0131629D01*
X0083903Y0130928D01*
X0083903Y0133030D02*
X0084604Y0133731D01*
X0086005Y0133731D01*
X0086705Y0133030D01*
X0086705Y0132330D01*
X0086005Y0131629D01*
X0082102Y0129527D02*
X0080000Y0129527D01*
X0079299Y0130228D01*
X0079299Y0130928D01*
X0080000Y0131629D01*
X0079299Y0132330D02*
X0079299Y0133030D01*
X0080000Y0133731D01*
X0082102Y0133731D01*
X0082102Y0129527D01*
X0082102Y0123731D02*
X0080000Y0123731D01*
X0079299Y0123030D01*
X0079299Y0122330D01*
X0080000Y0121629D01*
X0082102Y0121629D01*
X0083903Y0120928D02*
X0083903Y0120228D01*
X0084604Y0119527D01*
X0086005Y0119527D01*
X0086705Y0120228D01*
X0086005Y0121629D02*
X0084604Y0121629D01*
X0083903Y0120928D01*
X0083903Y0123030D02*
X0084604Y0123731D01*
X0086005Y0123731D01*
X0086705Y0123030D01*
X0086705Y0122330D01*
X0086005Y0121629D01*
X0082102Y0119527D02*
X0080000Y0119527D01*
X0079299Y0120228D01*
X0079299Y0120928D01*
X0080000Y0121629D01*
X0077498Y0121629D02*
X0076096Y0122330D01*
X0075396Y0122330D01*
X0074695Y0121629D01*
X0074695Y0120228D01*
X0075396Y0119527D01*
X0076797Y0119527D01*
X0077498Y0120228D01*
X0077498Y0121629D02*
X0077498Y0123731D01*
X0074695Y0123731D01*
X0072894Y0122330D02*
X0071493Y0123731D01*
X0071493Y0119527D01*
X0072894Y0119527D02*
X0070091Y0119527D01*
X0070792Y0113731D02*
X0072193Y0113731D01*
X0072894Y0113030D01*
X0074695Y0113731D02*
X0077498Y0113731D01*
X0077498Y0111629D01*
X0076096Y0112330D01*
X0075396Y0112330D01*
X0074695Y0111629D01*
X0074695Y0110228D01*
X0075396Y0109527D01*
X0076797Y0109527D01*
X0077498Y0110228D01*
X0079299Y0110228D02*
X0080000Y0109527D01*
X0082102Y0109527D01*
X0082102Y0113731D01*
X0080000Y0113731D01*
X0079299Y0113030D01*
X0079299Y0112330D01*
X0080000Y0111629D01*
X0082102Y0111629D01*
X0083903Y0110928D02*
X0083903Y0110228D01*
X0084604Y0109527D01*
X0086005Y0109527D01*
X0086705Y0110228D01*
X0086005Y0111629D02*
X0084604Y0111629D01*
X0083903Y0110928D01*
X0083903Y0113030D02*
X0084604Y0113731D01*
X0086005Y0113731D01*
X0086705Y0113030D01*
X0086705Y0112330D01*
X0086005Y0111629D01*
X0080000Y0111629D02*
X0079299Y0110928D01*
X0079299Y0110228D01*
X0072894Y0109527D02*
X0070091Y0112330D01*
X0070091Y0113030D01*
X0070792Y0113731D01*
X0070091Y0109527D02*
X0072894Y0109527D01*
X0082102Y0119527D02*
X0082102Y0123731D01*
X0270091Y0119527D02*
X0272894Y0119527D01*
X0271493Y0119527D02*
X0271493Y0123731D01*
X0272894Y0122330D01*
X0274695Y0119527D02*
X0277498Y0119527D01*
X0276096Y0119527D02*
X0276096Y0123731D01*
X0277498Y0122330D01*
X0279299Y0122330D02*
X0280000Y0121629D01*
X0282102Y0121629D01*
X0283903Y0120928D02*
X0283903Y0120228D01*
X0284604Y0119527D01*
X0286005Y0119527D01*
X0286706Y0120228D01*
X0286005Y0121629D02*
X0284604Y0121629D01*
X0283903Y0120928D01*
X0283903Y0123030D02*
X0284604Y0123731D01*
X0286005Y0123731D01*
X0286706Y0123030D01*
X0286706Y0122330D01*
X0286005Y0121629D01*
X0282102Y0119527D02*
X0280000Y0119527D01*
X0279299Y0120228D01*
X0279299Y0120928D01*
X0280000Y0121629D01*
X0279299Y0122330D02*
X0279299Y0123030D01*
X0280000Y0123731D01*
X0282102Y0123731D01*
X0282102Y0119527D01*
X0282302Y0113731D02*
X0283703Y0113731D01*
X0284404Y0113030D01*
X0284404Y0112330D01*
X0283703Y0111629D01*
X0282302Y0111629D01*
X0281601Y0110928D01*
X0281601Y0110228D01*
X0282302Y0109527D01*
X0283703Y0109527D01*
X0284404Y0110228D01*
X0281601Y0113030D02*
X0282302Y0113731D01*
X0279800Y0113731D02*
X0277698Y0113731D01*
X0276997Y0113030D01*
X0276997Y0112330D01*
X0277698Y0111629D01*
X0279800Y0111629D01*
X0279800Y0109527D02*
X0277698Y0109527D01*
X0276997Y0110228D01*
X0276997Y0110928D01*
X0277698Y0111629D01*
X0275196Y0110228D02*
X0274495Y0109527D01*
X0273094Y0109527D01*
X0272393Y0110228D01*
X0272393Y0110928D01*
X0273094Y0111629D01*
X0273795Y0111629D01*
X0273094Y0111629D02*
X0272393Y0112330D01*
X0272393Y0113030D01*
X0273094Y0113731D01*
X0274495Y0113731D01*
X0275196Y0113030D01*
X0279800Y0113731D02*
X0279800Y0109527D01*
X0279800Y0103731D02*
X0277698Y0103731D01*
X0276997Y0103030D01*
X0276997Y0102330D01*
X0277698Y0101629D01*
X0279800Y0101629D01*
X0281601Y0100928D02*
X0281601Y0100228D01*
X0282302Y0099527D01*
X0283703Y0099527D01*
X0284404Y0100228D01*
X0283703Y0101629D02*
X0282302Y0101629D01*
X0281601Y0100928D01*
X0281601Y0103030D02*
X0282302Y0103731D01*
X0283703Y0103731D01*
X0284404Y0103030D01*
X0284404Y0102330D01*
X0283703Y0101629D01*
X0279800Y0099527D02*
X0279800Y0103731D01*
X0277698Y0101629D02*
X0276997Y0100928D01*
X0276997Y0100228D01*
X0277698Y0099527D01*
X0279800Y0099527D01*
X0275196Y0101629D02*
X0272393Y0101629D01*
X0273094Y0099527D02*
X0273094Y0103731D01*
X0275196Y0101629D01*
X0274695Y0129527D02*
X0277498Y0129527D01*
X0274695Y0132330D01*
X0274695Y0133030D01*
X0275396Y0133731D01*
X0276797Y0133731D01*
X0277498Y0133030D01*
X0279299Y0133030D02*
X0279299Y0132330D01*
X0280000Y0131629D01*
X0282102Y0131629D01*
X0283903Y0130928D02*
X0283903Y0130228D01*
X0284604Y0129527D01*
X0286005Y0129527D01*
X0286706Y0130228D01*
X0286005Y0131629D02*
X0284604Y0131629D01*
X0283903Y0130928D01*
X0283903Y0133030D02*
X0284604Y0133731D01*
X0286005Y0133731D01*
X0286706Y0133030D01*
X0286706Y0132330D01*
X0286005Y0131629D01*
X0282102Y0129527D02*
X0280000Y0129527D01*
X0279299Y0130228D01*
X0279299Y0130928D01*
X0280000Y0131629D01*
X0279299Y0133030D02*
X0280000Y0133731D01*
X0282102Y0133731D01*
X0282102Y0129527D01*
X0272894Y0130228D02*
X0270091Y0133030D01*
X0270091Y0130228D01*
X0270792Y0129527D01*
X0272193Y0129527D01*
X0272894Y0130228D01*
X0272894Y0133030D01*
X0272193Y0133731D01*
X0270792Y0133731D01*
X0270091Y0133030D01*
X0270091Y0139527D02*
X0272894Y0139527D01*
X0270091Y0142330D01*
X0270091Y0143030D01*
X0270792Y0143731D01*
X0272193Y0143731D01*
X0272894Y0143030D01*
X0274695Y0143030D02*
X0275396Y0143731D01*
X0276797Y0143731D01*
X0277498Y0143030D01*
X0279299Y0143030D02*
X0279299Y0142330D01*
X0280000Y0141629D01*
X0282102Y0141629D01*
X0283903Y0140928D02*
X0283903Y0140228D01*
X0284604Y0139527D01*
X0286005Y0139527D01*
X0286706Y0140228D01*
X0286005Y0141629D02*
X0284604Y0141629D01*
X0283903Y0140928D01*
X0283903Y0143030D02*
X0284604Y0143731D01*
X0286005Y0143731D01*
X0286706Y0143030D01*
X0286706Y0142330D01*
X0286005Y0141629D01*
X0282102Y0139527D02*
X0280000Y0139527D01*
X0279299Y0140228D01*
X0279299Y0140928D01*
X0280000Y0141629D01*
X0279299Y0143030D02*
X0280000Y0143731D01*
X0282102Y0143731D01*
X0282102Y0139527D01*
X0277498Y0139527D02*
X0274695Y0142330D01*
X0274695Y0143030D01*
X0274695Y0139527D02*
X0277498Y0139527D01*
X0277498Y0149527D02*
X0274695Y0152330D01*
X0274695Y0153030D01*
X0275396Y0153731D01*
X0276797Y0153731D01*
X0277498Y0153030D01*
X0279299Y0153030D02*
X0280000Y0153731D01*
X0282102Y0153731D01*
X0282102Y0149527D01*
X0280000Y0149527D01*
X0279299Y0150228D01*
X0279299Y0150928D01*
X0280000Y0151629D01*
X0282102Y0151629D01*
X0283903Y0150928D02*
X0283903Y0150228D01*
X0284604Y0149527D01*
X0286005Y0149527D01*
X0286706Y0150228D01*
X0286005Y0151629D02*
X0284604Y0151629D01*
X0283903Y0150928D01*
X0283903Y0153030D02*
X0284604Y0153731D01*
X0286005Y0153731D01*
X0286706Y0153030D01*
X0286706Y0152330D01*
X0286005Y0151629D01*
X0280000Y0151629D02*
X0279299Y0152330D01*
X0279299Y0153030D01*
X0277498Y0149527D02*
X0274695Y0149527D01*
X0272894Y0149527D02*
X0270091Y0149527D01*
X0271493Y0149527D02*
X0271493Y0153731D01*
X0272894Y0152330D01*
X0272894Y0159527D02*
X0272894Y0160228D01*
X0270091Y0163030D01*
X0270091Y0163731D01*
X0272894Y0163731D01*
X0274695Y0163030D02*
X0275396Y0163731D01*
X0276797Y0163731D01*
X0277498Y0163030D01*
X0279299Y0163030D02*
X0279299Y0162330D01*
X0280000Y0161629D01*
X0282102Y0161629D01*
X0283903Y0160928D02*
X0283903Y0160228D01*
X0284604Y0159527D01*
X0286005Y0159527D01*
X0286706Y0160228D01*
X0286005Y0161629D02*
X0284604Y0161629D01*
X0283903Y0160928D01*
X0283903Y0163030D02*
X0284604Y0163731D01*
X0286005Y0163731D01*
X0286706Y0163030D01*
X0286706Y0162330D01*
X0286005Y0161629D01*
X0282102Y0159527D02*
X0282102Y0163731D01*
X0280000Y0163731D01*
X0279299Y0163030D01*
X0280000Y0161629D02*
X0279299Y0160928D01*
X0279299Y0160228D01*
X0280000Y0159527D01*
X0282102Y0159527D01*
X0277498Y0159527D02*
X0274695Y0162330D01*
X0274695Y0163030D01*
X0274695Y0159527D02*
X0277498Y0159527D01*
X0277698Y0169527D02*
X0279800Y0169527D01*
X0279800Y0173731D01*
X0277698Y0173731D01*
X0276997Y0173030D01*
X0276997Y0172330D01*
X0277698Y0171629D01*
X0279800Y0171629D01*
X0281601Y0170928D02*
X0282302Y0171629D01*
X0283703Y0171629D01*
X0284404Y0172330D01*
X0284404Y0173030D01*
X0283703Y0173731D01*
X0282302Y0173731D01*
X0281601Y0173030D01*
X0281601Y0170928D02*
X0281601Y0170228D01*
X0282302Y0169527D01*
X0283703Y0169527D01*
X0284404Y0170228D01*
X0277698Y0169527D02*
X0276997Y0170228D01*
X0276997Y0170928D01*
X0277698Y0171629D01*
X0275196Y0172330D02*
X0274495Y0171629D01*
X0272393Y0171629D01*
X0272393Y0170228D02*
X0272393Y0173030D01*
X0273094Y0173731D01*
X0274495Y0173731D01*
X0275196Y0173030D01*
X0275196Y0172330D01*
X0275196Y0170228D02*
X0274495Y0169527D01*
X0273094Y0169527D01*
X0272393Y0170228D01*
X0272193Y0179527D02*
X0270792Y0179527D01*
X0270091Y0180228D01*
X0270091Y0183030D01*
X0272894Y0180228D01*
X0272193Y0179527D01*
X0272894Y0180228D02*
X0272894Y0183030D01*
X0272193Y0183731D01*
X0270792Y0183731D01*
X0270091Y0183030D01*
X0274695Y0179527D02*
X0277498Y0179527D01*
X0276096Y0179527D02*
X0276096Y0183731D01*
X0277498Y0182330D01*
X0279299Y0182330D02*
X0280000Y0181629D01*
X0282102Y0181629D01*
X0283903Y0180928D02*
X0283903Y0180228D01*
X0284604Y0179527D01*
X0286005Y0179527D01*
X0286706Y0180228D01*
X0286005Y0181629D02*
X0284604Y0181629D01*
X0283903Y0180928D01*
X0283903Y0183030D02*
X0284604Y0183731D01*
X0286005Y0183731D01*
X0286706Y0183030D01*
X0286706Y0182330D01*
X0286005Y0181629D01*
X0282102Y0179527D02*
X0280000Y0179527D01*
X0279299Y0180228D01*
X0279299Y0180928D01*
X0280000Y0181629D01*
X0279299Y0182330D02*
X0279299Y0183030D01*
X0280000Y0183731D01*
X0282102Y0183731D01*
X0282102Y0179527D01*
X0282102Y0189527D02*
X0280000Y0189527D01*
X0279299Y0190228D01*
X0279299Y0190928D01*
X0280000Y0191629D01*
X0282102Y0191629D01*
X0283903Y0190928D02*
X0283903Y0190228D01*
X0284604Y0189527D01*
X0286005Y0189527D01*
X0286706Y0190228D01*
X0286005Y0191629D02*
X0284604Y0191629D01*
X0283903Y0190928D01*
X0283903Y0193030D02*
X0284604Y0193731D01*
X0286005Y0193731D01*
X0286706Y0193030D01*
X0286706Y0192330D01*
X0286005Y0191629D01*
X0282102Y0189527D02*
X0282102Y0193731D01*
X0280000Y0193731D01*
X0279299Y0193030D01*
X0279299Y0192330D01*
X0280000Y0191629D01*
X0277498Y0191629D02*
X0275396Y0193731D01*
X0275396Y0189527D01*
X0274695Y0191629D02*
X0277498Y0191629D01*
X0272894Y0191629D02*
X0272894Y0193731D01*
X0270091Y0193731D01*
X0270792Y0192330D02*
X0270091Y0191629D01*
X0270091Y0190228D01*
X0270792Y0189527D01*
X0272193Y0189527D01*
X0272894Y0190228D01*
X0272894Y0191629D02*
X0271493Y0192330D01*
X0270792Y0192330D01*
X0270792Y0199527D02*
X0272193Y0199527D01*
X0272894Y0200228D01*
X0274695Y0199527D02*
X0277498Y0199527D01*
X0274695Y0202330D01*
X0274695Y0203030D01*
X0275396Y0203731D01*
X0276797Y0203731D01*
X0277498Y0203030D01*
X0279299Y0203030D02*
X0279299Y0202330D01*
X0280000Y0201629D01*
X0282102Y0201629D01*
X0283903Y0200928D02*
X0283903Y0200228D01*
X0284604Y0199527D01*
X0286005Y0199527D01*
X0286706Y0200228D01*
X0286005Y0201629D02*
X0284604Y0201629D01*
X0283903Y0200928D01*
X0283903Y0203030D02*
X0284604Y0203731D01*
X0286005Y0203731D01*
X0286706Y0203030D01*
X0286706Y0202330D01*
X0286005Y0201629D01*
X0282102Y0199527D02*
X0282102Y0203731D01*
X0280000Y0203731D01*
X0279299Y0203030D01*
X0280000Y0201629D02*
X0279299Y0200928D01*
X0279299Y0200228D01*
X0280000Y0199527D01*
X0282102Y0199527D01*
X0272894Y0203030D02*
X0272193Y0203731D01*
X0270792Y0203731D01*
X0270091Y0203030D01*
X0270091Y0202330D01*
X0270792Y0201629D01*
X0270091Y0200928D01*
X0270091Y0200228D01*
X0270792Y0199527D01*
X0270792Y0201629D02*
X0271493Y0201629D01*
X0273094Y0209527D02*
X0274495Y0209527D01*
X0275196Y0210228D01*
X0275196Y0210928D01*
X0274495Y0211629D01*
X0273094Y0211629D01*
X0272393Y0210928D01*
X0272393Y0210228D01*
X0273094Y0209527D01*
X0273094Y0211629D02*
X0272393Y0212330D01*
X0272393Y0213030D01*
X0273094Y0213731D01*
X0274495Y0213731D01*
X0275196Y0213030D01*
X0275196Y0212330D01*
X0274495Y0211629D01*
X0276997Y0210928D02*
X0276997Y0210228D01*
X0277698Y0209527D01*
X0279800Y0209527D01*
X0279800Y0213731D01*
X0277698Y0213731D01*
X0276997Y0213030D01*
X0276997Y0212330D01*
X0277698Y0211629D01*
X0279800Y0211629D01*
X0281601Y0210928D02*
X0282302Y0211629D01*
X0283703Y0211629D01*
X0284404Y0212330D01*
X0284404Y0213030D01*
X0283703Y0213731D01*
X0282302Y0213731D01*
X0281601Y0213030D01*
X0281601Y0210928D02*
X0281601Y0210228D01*
X0282302Y0209527D01*
X0283703Y0209527D01*
X0284404Y0210228D01*
X0277698Y0211629D02*
X0276997Y0210928D01*
X0277698Y0219527D02*
X0279800Y0219527D01*
X0279800Y0223731D01*
X0277698Y0223731D01*
X0276997Y0223030D01*
X0276997Y0222330D01*
X0277698Y0221629D01*
X0279800Y0221629D01*
X0281601Y0220928D02*
X0281601Y0220228D01*
X0282302Y0219527D01*
X0283703Y0219527D01*
X0284404Y0220228D01*
X0283703Y0221629D02*
X0282302Y0221629D01*
X0281601Y0220928D01*
X0281601Y0223030D02*
X0282302Y0223731D01*
X0283703Y0223731D01*
X0284404Y0223030D01*
X0284404Y0222330D01*
X0283703Y0221629D01*
X0283703Y0229527D02*
X0282302Y0229527D01*
X0281601Y0230228D01*
X0281601Y0230928D01*
X0282302Y0231629D01*
X0283703Y0231629D01*
X0284404Y0232330D01*
X0284404Y0233030D01*
X0283703Y0233731D01*
X0282302Y0233731D01*
X0281601Y0233030D01*
X0279800Y0233731D02*
X0277698Y0233731D01*
X0276997Y0233030D01*
X0276997Y0232330D01*
X0277698Y0231629D01*
X0279800Y0231629D01*
X0279800Y0229527D02*
X0279800Y0233731D01*
X0277698Y0231629D02*
X0276997Y0230928D01*
X0276997Y0230228D01*
X0277698Y0229527D01*
X0279800Y0229527D01*
X0283703Y0229527D02*
X0284404Y0230228D01*
X0277698Y0221629D02*
X0276997Y0220928D01*
X0276997Y0220228D01*
X0277698Y0219527D01*
X0275196Y0219527D02*
X0275196Y0220228D01*
X0272393Y0223030D01*
X0272393Y0223731D01*
X0275196Y0223731D01*
X0274495Y0229527D02*
X0273094Y0229527D01*
X0272393Y0230228D01*
X0272393Y0230928D01*
X0273094Y0231629D01*
X0275196Y0231629D01*
X0275196Y0230228D01*
X0274495Y0229527D01*
X0275196Y0231629D02*
X0273795Y0233030D01*
X0272393Y0233731D01*
X0272193Y0259527D02*
X0270792Y0259527D01*
X0270091Y0260228D01*
X0270091Y0260928D01*
X0270792Y0261629D01*
X0272894Y0261629D01*
X0272894Y0260228D01*
X0272193Y0259527D01*
X0272894Y0261629D02*
X0271493Y0263030D01*
X0270091Y0263731D01*
X0274695Y0263030D02*
X0275396Y0263731D01*
X0276797Y0263731D01*
X0277498Y0263030D01*
X0279299Y0263030D02*
X0279299Y0262330D01*
X0280000Y0261629D01*
X0282102Y0261629D01*
X0283903Y0260928D02*
X0283903Y0260228D01*
X0284604Y0259527D01*
X0286005Y0259527D01*
X0286706Y0260228D01*
X0286005Y0261629D02*
X0284604Y0261629D01*
X0283903Y0260928D01*
X0283903Y0263030D02*
X0284604Y0263731D01*
X0286005Y0263731D01*
X0286706Y0263030D01*
X0286706Y0262330D01*
X0286005Y0261629D01*
X0282102Y0259527D02*
X0280000Y0259527D01*
X0279299Y0260228D01*
X0279299Y0260928D01*
X0280000Y0261629D01*
X0279299Y0263030D02*
X0280000Y0263731D01*
X0282102Y0263731D01*
X0282102Y0259527D01*
X0277498Y0259527D02*
X0274695Y0262330D01*
X0274695Y0263030D01*
X0274695Y0259527D02*
X0277498Y0259527D01*
X0277498Y0269527D02*
X0274695Y0269527D01*
X0272894Y0270228D02*
X0272193Y0269527D01*
X0270792Y0269527D01*
X0270091Y0270228D01*
X0270091Y0271629D01*
X0270792Y0272330D01*
X0271493Y0272330D01*
X0272894Y0271629D01*
X0272894Y0273731D01*
X0270091Y0273731D01*
X0274695Y0273030D02*
X0275396Y0273731D01*
X0276797Y0273731D01*
X0277498Y0273030D01*
X0279299Y0273030D02*
X0279299Y0272330D01*
X0280000Y0271629D01*
X0282102Y0271629D01*
X0283903Y0270928D02*
X0283903Y0270228D01*
X0284604Y0269527D01*
X0286005Y0269527D01*
X0286706Y0270228D01*
X0286005Y0271629D02*
X0284604Y0271629D01*
X0283903Y0270928D01*
X0283903Y0273030D02*
X0284604Y0273731D01*
X0286005Y0273731D01*
X0286706Y0273030D01*
X0286706Y0272330D01*
X0286005Y0271629D01*
X0282102Y0269527D02*
X0280000Y0269527D01*
X0279299Y0270228D01*
X0279299Y0270928D01*
X0280000Y0271629D01*
X0279299Y0273030D02*
X0280000Y0273731D01*
X0282102Y0273731D01*
X0282102Y0269527D01*
X0277498Y0269527D02*
X0274695Y0272330D01*
X0274695Y0273030D01*
X0273693Y0279527D02*
X0274394Y0280228D01*
X0273693Y0279527D02*
X0272292Y0279527D01*
X0271591Y0280228D01*
X0271591Y0280928D01*
X0272292Y0281629D01*
X0272993Y0281629D01*
X0272292Y0281629D02*
X0271591Y0282330D01*
X0271591Y0283030D01*
X0272292Y0283731D01*
X0273693Y0283731D01*
X0274394Y0283030D01*
X0276195Y0281629D02*
X0278998Y0281629D01*
X0276896Y0283731D01*
X0276896Y0279527D01*
X0280799Y0280228D02*
X0281500Y0279527D01*
X0283602Y0279527D01*
X0283602Y0283731D01*
X0281500Y0283731D01*
X0280799Y0283030D01*
X0280799Y0282330D01*
X0281500Y0281629D01*
X0283602Y0281629D01*
X0285403Y0280928D02*
X0285403Y0280228D01*
X0286104Y0279527D01*
X0287505Y0279527D01*
X0288206Y0280228D01*
X0287505Y0281629D02*
X0286104Y0281629D01*
X0285403Y0280928D01*
X0285403Y0283030D02*
X0286104Y0283731D01*
X0287505Y0283731D01*
X0288206Y0283030D01*
X0288206Y0282330D01*
X0287505Y0281629D01*
X0281500Y0281629D02*
X0280799Y0280928D01*
X0280799Y0280228D01*
X0310091Y0281629D02*
X0312894Y0281629D01*
X0310792Y0283731D01*
X0310792Y0279527D01*
X0314695Y0281629D02*
X0317498Y0281629D01*
X0315396Y0283731D01*
X0315396Y0279527D01*
X0319299Y0280228D02*
X0320000Y0279527D01*
X0322102Y0279527D01*
X0322102Y0283731D01*
X0320000Y0283731D01*
X0319299Y0283030D01*
X0319299Y0282330D01*
X0320000Y0281629D01*
X0322102Y0281629D01*
X0323903Y0280928D02*
X0323903Y0280228D01*
X0324604Y0279527D01*
X0326005Y0279527D01*
X0326706Y0280228D01*
X0326005Y0281629D02*
X0324604Y0281629D01*
X0323903Y0280928D01*
X0323903Y0283030D02*
X0324604Y0283731D01*
X0326005Y0283731D01*
X0326706Y0283030D01*
X0326706Y0282330D01*
X0326005Y0281629D01*
X0320000Y0281629D02*
X0319299Y0280928D01*
X0319299Y0280228D01*
X0320000Y0273731D02*
X0319299Y0273030D01*
X0319299Y0272330D01*
X0320000Y0271629D01*
X0322102Y0271629D01*
X0323903Y0270928D02*
X0323903Y0270228D01*
X0324604Y0269527D01*
X0326005Y0269527D01*
X0326706Y0270228D01*
X0326005Y0271629D02*
X0324604Y0271629D01*
X0323903Y0270928D01*
X0323903Y0273030D02*
X0324604Y0273731D01*
X0326005Y0273731D01*
X0326706Y0273030D01*
X0326706Y0272330D01*
X0326005Y0271629D01*
X0322102Y0269527D02*
X0320000Y0269527D01*
X0319299Y0270228D01*
X0319299Y0270928D01*
X0320000Y0271629D01*
X0320000Y0273731D02*
X0322102Y0273731D01*
X0322102Y0269527D01*
X0317498Y0271629D02*
X0314695Y0271629D01*
X0312894Y0271629D02*
X0310792Y0271629D01*
X0310091Y0270928D01*
X0310091Y0270228D01*
X0310792Y0269527D01*
X0312193Y0269527D01*
X0312894Y0270228D01*
X0312894Y0271629D01*
X0311493Y0273030D01*
X0310091Y0273731D01*
X0315396Y0273731D02*
X0315396Y0269527D01*
X0317498Y0271629D02*
X0315396Y0273731D01*
X0315396Y0263731D02*
X0317498Y0261629D01*
X0314695Y0261629D01*
X0315396Y0259527D02*
X0315396Y0263731D01*
X0312894Y0263731D02*
X0310091Y0263731D01*
X0310091Y0263030D01*
X0312894Y0260228D01*
X0312894Y0259527D01*
X0319299Y0260228D02*
X0320000Y0259527D01*
X0322102Y0259527D01*
X0322102Y0263731D01*
X0320000Y0263731D01*
X0319299Y0263030D01*
X0319299Y0262330D01*
X0320000Y0261629D01*
X0322102Y0261629D01*
X0323903Y0260928D02*
X0323903Y0260228D01*
X0324604Y0259527D01*
X0326005Y0259527D01*
X0326706Y0260228D01*
X0326005Y0261629D02*
X0324604Y0261629D01*
X0323903Y0260928D01*
X0323903Y0263030D02*
X0324604Y0263731D01*
X0326005Y0263731D01*
X0326706Y0263030D01*
X0326706Y0262330D01*
X0326005Y0261629D01*
X0320000Y0261629D02*
X0319299Y0260928D01*
X0319299Y0260228D01*
X0320000Y0243731D02*
X0319299Y0243030D01*
X0319299Y0242330D01*
X0320000Y0241629D01*
X0322102Y0241629D01*
X0323903Y0240928D02*
X0323903Y0240228D01*
X0324604Y0239527D01*
X0326005Y0239527D01*
X0326705Y0240228D01*
X0326005Y0241629D02*
X0324604Y0241629D01*
X0323903Y0240928D01*
X0323903Y0243030D02*
X0324604Y0243731D01*
X0326005Y0243731D01*
X0326705Y0243030D01*
X0326705Y0242330D01*
X0326005Y0241629D01*
X0322102Y0239527D02*
X0322102Y0243731D01*
X0320000Y0243731D01*
X0320000Y0241629D02*
X0319299Y0240928D01*
X0319299Y0240228D01*
X0320000Y0239527D01*
X0322102Y0239527D01*
X0317498Y0239527D02*
X0314695Y0239527D01*
X0316096Y0239527D02*
X0316096Y0243731D01*
X0317498Y0242330D01*
X0312894Y0243030D02*
X0312193Y0243731D01*
X0310792Y0243731D01*
X0310091Y0243030D01*
X0310091Y0242330D01*
X0310792Y0241629D01*
X0310091Y0240928D01*
X0310091Y0240228D01*
X0310792Y0239527D01*
X0312193Y0239527D01*
X0312894Y0240228D01*
X0311493Y0241629D02*
X0310792Y0241629D01*
X0310792Y0233731D02*
X0312193Y0233731D01*
X0312894Y0233030D01*
X0310792Y0233731D02*
X0310091Y0233030D01*
X0310091Y0232330D01*
X0312894Y0229527D01*
X0310091Y0229527D01*
X0314695Y0229527D02*
X0317498Y0229527D01*
X0316096Y0229527D02*
X0316096Y0233731D01*
X0317498Y0232330D01*
X0319299Y0232330D02*
X0320000Y0231629D01*
X0322102Y0231629D01*
X0323903Y0230928D02*
X0323903Y0230228D01*
X0324604Y0229527D01*
X0326005Y0229527D01*
X0326705Y0230228D01*
X0326005Y0231629D02*
X0324604Y0231629D01*
X0323903Y0230928D01*
X0323903Y0233030D02*
X0324604Y0233731D01*
X0326005Y0233731D01*
X0326705Y0233030D01*
X0326705Y0232330D01*
X0326005Y0231629D01*
X0322102Y0229527D02*
X0320000Y0229527D01*
X0319299Y0230228D01*
X0319299Y0230928D01*
X0320000Y0231629D01*
X0319299Y0232330D02*
X0319299Y0233030D01*
X0320000Y0233731D01*
X0322102Y0233731D01*
X0322102Y0229527D01*
X0322102Y0223731D02*
X0320000Y0223731D01*
X0319299Y0223030D01*
X0319299Y0222330D01*
X0320000Y0221629D01*
X0322102Y0221629D01*
X0323903Y0220928D02*
X0323903Y0220228D01*
X0324604Y0219527D01*
X0326005Y0219527D01*
X0326705Y0220228D01*
X0326005Y0221629D02*
X0324604Y0221629D01*
X0323903Y0220928D01*
X0323903Y0223030D02*
X0324604Y0223731D01*
X0326005Y0223731D01*
X0326705Y0223030D01*
X0326705Y0222330D01*
X0326005Y0221629D01*
X0322102Y0219527D02*
X0320000Y0219527D01*
X0319299Y0220228D01*
X0319299Y0220928D01*
X0320000Y0221629D01*
X0317498Y0223030D02*
X0316797Y0223731D01*
X0315396Y0223731D01*
X0314695Y0223030D01*
X0314695Y0222330D01*
X0317498Y0219527D01*
X0314695Y0219527D01*
X0312894Y0220228D02*
X0312894Y0220928D01*
X0312193Y0221629D01*
X0310792Y0221629D01*
X0310091Y0220928D01*
X0310091Y0220228D01*
X0310792Y0219527D01*
X0312193Y0219527D01*
X0312894Y0220228D01*
X0312193Y0221629D02*
X0312894Y0222330D01*
X0312894Y0223030D01*
X0312193Y0223731D01*
X0310792Y0223731D01*
X0310091Y0223030D01*
X0310091Y0222330D01*
X0310792Y0221629D01*
X0322102Y0219527D02*
X0322102Y0223731D01*
X0322102Y0193731D02*
X0320000Y0193731D01*
X0319299Y0193030D01*
X0319299Y0192330D01*
X0320000Y0191629D01*
X0322102Y0191629D01*
X0323903Y0190928D02*
X0323903Y0190228D01*
X0324604Y0189527D01*
X0326005Y0189527D01*
X0326705Y0190228D01*
X0326005Y0191629D02*
X0324604Y0191629D01*
X0323903Y0190928D01*
X0323903Y0193030D02*
X0324604Y0193731D01*
X0326005Y0193731D01*
X0326705Y0193030D01*
X0326705Y0192330D01*
X0326005Y0191629D01*
X0322102Y0189527D02*
X0322102Y0193731D01*
X0320000Y0191629D02*
X0319299Y0190928D01*
X0319299Y0190228D01*
X0320000Y0189527D01*
X0322102Y0189527D01*
X0317498Y0189527D02*
X0314695Y0189527D01*
X0316096Y0189527D02*
X0316096Y0193731D01*
X0317498Y0192330D01*
X0312894Y0192330D02*
X0312193Y0191629D01*
X0310091Y0191629D01*
X0310091Y0190228D02*
X0310091Y0193030D01*
X0310792Y0193731D01*
X0312193Y0193731D01*
X0312894Y0193030D01*
X0312894Y0192330D01*
X0312894Y0190228D02*
X0312193Y0189527D01*
X0310792Y0189527D01*
X0310091Y0190228D01*
X0310792Y0183731D02*
X0310091Y0183030D01*
X0310091Y0182330D01*
X0310792Y0181629D01*
X0312193Y0181629D01*
X0312894Y0182330D01*
X0312894Y0183030D01*
X0312193Y0183731D01*
X0310792Y0183731D01*
X0310792Y0181629D02*
X0310091Y0180928D01*
X0310091Y0180228D01*
X0310792Y0179527D01*
X0312193Y0179527D01*
X0312894Y0180228D01*
X0312894Y0180928D01*
X0312193Y0181629D01*
X0314695Y0179527D02*
X0317498Y0179527D01*
X0316096Y0179527D02*
X0316096Y0183731D01*
X0317498Y0182330D01*
X0319299Y0182330D02*
X0320000Y0181629D01*
X0322102Y0181629D01*
X0323903Y0180928D02*
X0323903Y0180228D01*
X0324604Y0179527D01*
X0326005Y0179527D01*
X0326705Y0180228D01*
X0326005Y0181629D02*
X0324604Y0181629D01*
X0323903Y0180928D01*
X0323903Y0183030D02*
X0324604Y0183731D01*
X0326005Y0183731D01*
X0326705Y0183030D01*
X0326705Y0182330D01*
X0326005Y0181629D01*
X0322102Y0179527D02*
X0320000Y0179527D01*
X0319299Y0180228D01*
X0319299Y0180928D01*
X0320000Y0181629D01*
X0319299Y0182330D02*
X0319299Y0183030D01*
X0320000Y0183731D01*
X0322102Y0183731D01*
X0322102Y0179527D01*
X0322102Y0173731D02*
X0320000Y0173731D01*
X0319299Y0173030D01*
X0319299Y0172330D01*
X0320000Y0171629D01*
X0322102Y0171629D01*
X0323903Y0170928D02*
X0323903Y0170228D01*
X0324604Y0169527D01*
X0326005Y0169527D01*
X0326705Y0170228D01*
X0326005Y0171629D02*
X0324604Y0171629D01*
X0323903Y0170928D01*
X0323903Y0173030D02*
X0324604Y0173731D01*
X0326005Y0173731D01*
X0326705Y0173030D01*
X0326705Y0172330D01*
X0326005Y0171629D01*
X0322102Y0169527D02*
X0320000Y0169527D01*
X0319299Y0170228D01*
X0319299Y0170928D01*
X0320000Y0171629D01*
X0317498Y0170228D02*
X0316797Y0169527D01*
X0315396Y0169527D01*
X0314695Y0170228D01*
X0314695Y0170928D01*
X0315396Y0171629D01*
X0316096Y0171629D01*
X0315396Y0171629D02*
X0314695Y0172330D01*
X0314695Y0173030D01*
X0315396Y0173731D01*
X0316797Y0173731D01*
X0317498Y0173030D01*
X0322102Y0173731D02*
X0322102Y0169527D01*
X0322102Y0163731D02*
X0320000Y0163731D01*
X0319299Y0163030D01*
X0319299Y0162330D01*
X0320000Y0161629D01*
X0322102Y0161629D01*
X0323903Y0160928D02*
X0323903Y0160228D01*
X0324604Y0159527D01*
X0326005Y0159527D01*
X0326705Y0160228D01*
X0326005Y0161629D02*
X0324604Y0161629D01*
X0323903Y0160928D01*
X0323903Y0163030D02*
X0324604Y0163731D01*
X0326005Y0163731D01*
X0326705Y0163030D01*
X0326705Y0162330D01*
X0326005Y0161629D01*
X0322102Y0159527D02*
X0322102Y0163731D01*
X0320000Y0161629D02*
X0319299Y0160928D01*
X0319299Y0160228D01*
X0320000Y0159527D01*
X0322102Y0159527D01*
X0317498Y0160228D02*
X0316797Y0159527D01*
X0315396Y0159527D01*
X0314695Y0160228D01*
X0314695Y0160928D01*
X0315396Y0161629D01*
X0316096Y0161629D01*
X0315396Y0161629D02*
X0314695Y0162330D01*
X0314695Y0163030D01*
X0315396Y0163731D01*
X0316797Y0163731D01*
X0317498Y0163030D01*
X0312894Y0163030D02*
X0312894Y0160228D01*
X0310091Y0163030D01*
X0310091Y0160228D01*
X0310792Y0159527D01*
X0312193Y0159527D01*
X0312894Y0160228D01*
X0312894Y0163030D02*
X0312193Y0163731D01*
X0310792Y0163731D01*
X0310091Y0163030D01*
X0310091Y0169527D02*
X0312894Y0169527D01*
X0311493Y0169527D02*
X0311493Y0173731D01*
X0312894Y0172330D01*
X0312193Y0153731D02*
X0310792Y0153731D01*
X0310091Y0153030D01*
X0310091Y0150228D01*
X0310792Y0149527D01*
X0312193Y0149527D01*
X0312894Y0150228D01*
X0312193Y0151629D02*
X0310091Y0151629D01*
X0312193Y0151629D02*
X0312894Y0152330D01*
X0312894Y0153030D01*
X0312193Y0153731D01*
X0314695Y0153030D02*
X0315396Y0153731D01*
X0316797Y0153731D01*
X0317498Y0153030D01*
X0319299Y0153030D02*
X0320000Y0153731D01*
X0322102Y0153731D01*
X0322102Y0149527D01*
X0320000Y0149527D01*
X0319299Y0150228D01*
X0319299Y0150928D01*
X0320000Y0151629D01*
X0322102Y0151629D01*
X0323903Y0150928D02*
X0323903Y0150228D01*
X0324604Y0149527D01*
X0326005Y0149527D01*
X0326705Y0150228D01*
X0326005Y0151629D02*
X0324604Y0151629D01*
X0323903Y0150928D01*
X0323903Y0153030D02*
X0324604Y0153731D01*
X0326005Y0153731D01*
X0326705Y0153030D01*
X0326705Y0152330D01*
X0326005Y0151629D01*
X0320000Y0151629D02*
X0319299Y0152330D01*
X0319299Y0153030D01*
X0317498Y0149527D02*
X0314695Y0152330D01*
X0314695Y0153030D01*
X0314695Y0149527D02*
X0317498Y0149527D01*
X0315396Y0123731D02*
X0317498Y0121629D01*
X0314695Y0121629D01*
X0312894Y0120928D02*
X0312193Y0121629D01*
X0310792Y0121629D01*
X0310091Y0120928D01*
X0310091Y0120228D01*
X0310792Y0119527D01*
X0312193Y0119527D01*
X0312894Y0120228D01*
X0312894Y0120928D01*
X0312193Y0121629D02*
X0312894Y0122330D01*
X0312894Y0123030D01*
X0312193Y0123731D01*
X0310792Y0123731D01*
X0310091Y0123030D01*
X0310091Y0122330D01*
X0310792Y0121629D01*
X0315396Y0119527D02*
X0315396Y0123731D01*
X0319299Y0123030D02*
X0319299Y0122330D01*
X0320000Y0121629D01*
X0322102Y0121629D01*
X0323903Y0120928D02*
X0323903Y0120228D01*
X0324604Y0119527D01*
X0326005Y0119527D01*
X0326706Y0120228D01*
X0326005Y0121629D02*
X0324604Y0121629D01*
X0323903Y0120928D01*
X0323903Y0123030D02*
X0324604Y0123731D01*
X0326005Y0123731D01*
X0326706Y0123030D01*
X0326706Y0122330D01*
X0326005Y0121629D01*
X0322102Y0119527D02*
X0320000Y0119527D01*
X0319299Y0120228D01*
X0319299Y0120928D01*
X0320000Y0121629D01*
X0319299Y0123030D02*
X0320000Y0123731D01*
X0322102Y0123731D01*
X0322102Y0119527D01*
M02*
