%
M48
M72
T01C0.04000
T02C0.14173
%
T01
X59000Y41000
X59000Y51000
X59000Y61000
X59000Y71000
X59000Y81000
X59000Y91000
X59000Y101000
X59000Y111000
X59000Y121000
X59000Y131000
X59000Y141000
X59000Y151000
X59000Y161000
X59000Y171000
X59000Y181000
X59000Y191000
X59000Y201000
X59000Y211000
X59000Y221000
X69000Y221000
X69000Y211000
X69000Y201000
X69000Y191000
X69000Y181000
X69000Y171000
X69000Y161000
X69000Y151000
X69000Y141000
X69000Y131000
X69000Y121000
X69000Y111000
X69000Y101000
X69000Y91000
X69000Y81000
X69000Y71000
X69000Y61000
X69000Y51000
X69000Y41000
X299000Y41000
X299000Y51000
X299000Y61000
X299000Y71000
X299000Y81000
X299000Y91000
X299000Y101000
X299000Y111000
X299000Y121000
X299000Y131000
X299000Y141000
X299000Y151000
X299000Y161000
X299000Y171000
X299000Y181000
X299000Y191000
X299000Y201000
X299000Y211000
X299000Y221000
X309000Y221000
X309000Y211000
X309000Y201000
X309000Y191000
X309000Y181000
X309000Y171000
X309000Y161000
X309000Y151000
X309000Y141000
X309000Y131000
X309000Y121000
X309000Y111000
X309000Y101000
X309000Y91000
X309000Y81000
X309000Y71000
X309000Y61000
X309000Y51000
X309000Y41000
T02
X209000Y31000
X279000Y231000
X89000Y236000
M30
