G75*
%MOIN*%
%OFA0B0*%
%FSLAX25Y25*%
%IPPOS*%
%LPD*%
%AMOC8*
5,1,8,0,0,1.08239X$1,22.5*
%
%ADD10OC8,0.06800*%
%ADD11C,0.14973*%
%ADD12R,0.03800X0.06800*%
D10*
X0059000Y0041000D03*
X0059000Y0051000D03*
X0059000Y0061000D03*
X0059000Y0071000D03*
X0059000Y0081000D03*
X0059000Y0091000D03*
X0059000Y0101000D03*
X0059000Y0111000D03*
X0059000Y0121000D03*
X0059000Y0131000D03*
X0059000Y0141000D03*
X0059000Y0151000D03*
X0059000Y0161000D03*
X0059000Y0171000D03*
X0059000Y0181000D03*
X0059000Y0191000D03*
X0059000Y0201000D03*
X0059000Y0211000D03*
X0059000Y0221000D03*
X0069000Y0221000D03*
X0069000Y0211000D03*
X0069000Y0201000D03*
X0069000Y0191000D03*
X0069000Y0181000D03*
X0069000Y0171000D03*
X0069000Y0161000D03*
X0069000Y0151000D03*
X0069000Y0141000D03*
X0069000Y0131000D03*
X0069000Y0121000D03*
X0069000Y0111000D03*
X0069000Y0101000D03*
X0069000Y0091000D03*
X0069000Y0081000D03*
X0069000Y0071000D03*
X0069000Y0061000D03*
X0069000Y0051000D03*
X0069000Y0041000D03*
X0299000Y0041000D03*
X0299000Y0051000D03*
X0299000Y0061000D03*
X0299000Y0071000D03*
X0299000Y0081000D03*
X0299000Y0091000D03*
X0299000Y0101000D03*
X0299000Y0111000D03*
X0299000Y0121000D03*
X0299000Y0131000D03*
X0299000Y0141000D03*
X0299000Y0151000D03*
X0299000Y0161000D03*
X0299000Y0171000D03*
X0299000Y0181000D03*
X0299000Y0191000D03*
X0299000Y0201000D03*
X0299000Y0211000D03*
X0299000Y0221000D03*
X0309000Y0221000D03*
X0309000Y0211000D03*
X0309000Y0201000D03*
X0309000Y0191000D03*
X0309000Y0181000D03*
X0309000Y0171000D03*
X0309000Y0161000D03*
X0309000Y0151000D03*
X0309000Y0141000D03*
X0309000Y0131000D03*
X0309000Y0121000D03*
X0309000Y0111000D03*
X0309000Y0101000D03*
X0309000Y0091000D03*
X0309000Y0081000D03*
X0309000Y0071000D03*
X0309000Y0061000D03*
X0309000Y0051000D03*
X0309000Y0041000D03*
D11*
X0209000Y0031000D03*
X0279000Y0231000D03*
X0089000Y0236000D03*
D12*
X0041500Y0041000D03*
X0046500Y0041000D03*
X0046500Y0051000D03*
X0041500Y0051000D03*
X0041500Y0071000D03*
X0046500Y0071000D03*
X0046500Y0081000D03*
X0041500Y0081000D03*
X0041500Y0091000D03*
X0046500Y0091000D03*
X0046500Y0101000D03*
X0041500Y0101000D03*
X0041500Y0111000D03*
X0046500Y0111000D03*
X0046500Y0121000D03*
X0041500Y0121000D03*
X0041500Y0141000D03*
X0046500Y0141000D03*
X0046500Y0151000D03*
X0041500Y0151000D03*
X0041500Y0161000D03*
X0046500Y0161000D03*
X0046500Y0191000D03*
X0041500Y0191000D03*
X0041500Y0211000D03*
X0046500Y0211000D03*
X0046500Y0221000D03*
X0041500Y0221000D03*
X0081500Y0221000D03*
X0086500Y0221000D03*
X0086500Y0211000D03*
X0081500Y0211000D03*
X0081500Y0161000D03*
X0086500Y0161000D03*
X0086500Y0111000D03*
X0081500Y0111000D03*
X0081500Y0091000D03*
X0086500Y0091000D03*
X0086500Y0081000D03*
X0081500Y0081000D03*
X0081500Y0071000D03*
X0086500Y0071000D03*
X0086500Y0061000D03*
X0081500Y0061000D03*
X0081500Y0051000D03*
X0086500Y0051000D03*
X0086500Y0041000D03*
X0081500Y0041000D03*
X0281500Y0041000D03*
X0286500Y0041000D03*
X0286500Y0051000D03*
X0281500Y0051000D03*
X0281500Y0061000D03*
X0286500Y0061000D03*
X0286500Y0071000D03*
X0281500Y0071000D03*
X0281500Y0081000D03*
X0286500Y0081000D03*
X0286500Y0091000D03*
X0281500Y0091000D03*
X0281500Y0101000D03*
X0286500Y0101000D03*
X0286500Y0111000D03*
X0281500Y0111000D03*
X0281500Y0121000D03*
X0286500Y0121000D03*
X0286500Y0131000D03*
X0281500Y0131000D03*
X0281500Y0141000D03*
X0286500Y0141000D03*
X0286500Y0151000D03*
X0281500Y0151000D03*
X0281500Y0161000D03*
X0286500Y0161000D03*
X0286500Y0171000D03*
X0281500Y0171000D03*
X0281500Y0201000D03*
X0286500Y0201000D03*
X0286500Y0211000D03*
X0281500Y0211000D03*
X0306500Y0231000D03*
X0311500Y0231000D03*
X0321500Y0221000D03*
X0326500Y0221000D03*
X0326500Y0211000D03*
X0321500Y0211000D03*
X0321500Y0201000D03*
X0326500Y0201000D03*
X0326500Y0171000D03*
X0321500Y0171000D03*
X0321500Y0161000D03*
X0326500Y0161000D03*
X0326500Y0151000D03*
X0321500Y0151000D03*
X0321500Y0121000D03*
X0326500Y0121000D03*
X0326500Y0111000D03*
X0321500Y0111000D03*
X0321500Y0101000D03*
X0326500Y0101000D03*
X0326500Y0091000D03*
X0321500Y0091000D03*
X0321500Y0081000D03*
X0326500Y0081000D03*
X0326500Y0061000D03*
X0321500Y0061000D03*
M02*
