G75*
%MOIN*%
%OFA0B0*%
%FSLAX25Y25*%
%IPPOS*%
%LPD*%
%AMOC8*
5,1,8,0,0,1.08239X$1,22.5*
%
%ADD10C,0.14186*%
%ADD11OC8,0.06800*%
%ADD12C,0.14973*%
%ADD13R,0.03800X0.04800*%
%ADD14OC8,0.13300*%
%ADD15C,0.06800*%
%ADD16OC8,0.03581*%
D10*
X0019146Y0028375D03*
X0019146Y0390580D03*
X0381350Y0390580D03*
X0381350Y0028375D03*
D11*
X0303398Y0106627D03*
X0303398Y0116627D03*
X0303398Y0126627D03*
X0303398Y0136627D03*
X0303398Y0146627D03*
X0303398Y0156627D03*
X0303398Y0166627D03*
X0303398Y0176627D03*
X0303398Y0186627D03*
X0303398Y0196627D03*
X0303398Y0206627D03*
X0303398Y0216627D03*
X0303398Y0226627D03*
X0303398Y0236627D03*
X0303398Y0246627D03*
X0303398Y0256627D03*
X0303398Y0266627D03*
X0303398Y0276627D03*
X0303398Y0286627D03*
X0293398Y0286627D03*
X0293398Y0276627D03*
X0293398Y0266627D03*
X0293398Y0256627D03*
X0293398Y0246627D03*
X0293398Y0236627D03*
X0293398Y0226627D03*
X0293398Y0216627D03*
X0293398Y0206627D03*
X0293398Y0196627D03*
X0293398Y0186627D03*
X0293398Y0176627D03*
X0293398Y0166627D03*
X0293398Y0156627D03*
X0293398Y0146627D03*
X0293398Y0136627D03*
X0293398Y0126627D03*
X0293398Y0116627D03*
X0293398Y0106627D03*
X0063398Y0106627D03*
X0063398Y0116627D03*
X0053398Y0116627D03*
X0053398Y0106627D03*
X0053398Y0126627D03*
X0063398Y0126627D03*
X0063398Y0136627D03*
X0063398Y0146627D03*
X0063398Y0156627D03*
X0053398Y0156627D03*
X0053398Y0146627D03*
X0053398Y0136627D03*
X0053398Y0166627D03*
X0063398Y0166627D03*
X0063398Y0176627D03*
X0063398Y0186627D03*
X0063398Y0196627D03*
X0063398Y0206627D03*
X0053398Y0206627D03*
X0053398Y0196627D03*
X0053398Y0186627D03*
X0053398Y0176627D03*
X0053398Y0216627D03*
X0063398Y0216627D03*
X0063398Y0226627D03*
X0063398Y0236627D03*
X0063398Y0246627D03*
X0063398Y0256627D03*
X0053398Y0256627D03*
X0053398Y0246627D03*
X0053398Y0236627D03*
X0053398Y0226627D03*
X0053398Y0266627D03*
X0063398Y0266627D03*
X0063398Y0276627D03*
X0063398Y0286627D03*
X0053398Y0286627D03*
X0053398Y0276627D03*
D12*
X0083398Y0301627D03*
X0203398Y0096627D03*
X0273398Y0296627D03*
D13*
X0276898Y0286627D03*
X0281898Y0286627D03*
X0280398Y0276627D03*
X0275398Y0276627D03*
X0275398Y0266627D03*
X0280398Y0266627D03*
X0280398Y0236627D03*
X0275398Y0236627D03*
X0275398Y0226627D03*
X0280398Y0226627D03*
X0280398Y0216627D03*
X0275398Y0216627D03*
X0275398Y0206627D03*
X0280398Y0206627D03*
X0280398Y0196627D03*
X0275398Y0196627D03*
X0275398Y0186627D03*
X0280398Y0186627D03*
X0280398Y0176627D03*
X0275398Y0176627D03*
X0275398Y0166627D03*
X0280398Y0166627D03*
X0280398Y0156627D03*
X0275398Y0156627D03*
X0275398Y0146627D03*
X0280398Y0146627D03*
X0280398Y0136627D03*
X0275398Y0136627D03*
X0275398Y0126627D03*
X0280398Y0126627D03*
X0280398Y0116627D03*
X0275398Y0116627D03*
X0275398Y0106627D03*
X0280398Y0106627D03*
X0315398Y0126627D03*
X0320398Y0126627D03*
X0320398Y0146627D03*
X0315398Y0146627D03*
X0315398Y0156627D03*
X0320398Y0156627D03*
X0320398Y0166627D03*
X0315398Y0166627D03*
X0315398Y0176627D03*
X0320398Y0176627D03*
X0320398Y0186627D03*
X0315398Y0186627D03*
X0315398Y0216627D03*
X0320398Y0216627D03*
X0320398Y0226627D03*
X0315398Y0226627D03*
X0315398Y0236627D03*
X0320398Y0236627D03*
X0320398Y0266627D03*
X0315398Y0266627D03*
X0315398Y0276627D03*
X0320398Y0276627D03*
X0320398Y0286627D03*
X0315398Y0286627D03*
X0080398Y0286627D03*
X0075398Y0286627D03*
X0075398Y0276627D03*
X0080398Y0276627D03*
X0040398Y0276627D03*
X0035398Y0276627D03*
X0035398Y0286627D03*
X0040398Y0286627D03*
X0040398Y0256627D03*
X0035398Y0256627D03*
X0035398Y0226627D03*
X0040398Y0226627D03*
X0040398Y0216627D03*
X0035398Y0216627D03*
X0035398Y0206627D03*
X0040398Y0206627D03*
X0040398Y0186627D03*
X0035398Y0186627D03*
X0035398Y0176627D03*
X0040398Y0176627D03*
X0040398Y0166627D03*
X0035398Y0166627D03*
X0035398Y0156627D03*
X0040398Y0156627D03*
X0040398Y0146627D03*
X0035398Y0146627D03*
X0035398Y0136627D03*
X0040398Y0136627D03*
X0040398Y0116627D03*
X0035398Y0116627D03*
X0035398Y0106627D03*
X0040398Y0106627D03*
X0075398Y0106627D03*
X0080398Y0106627D03*
X0080398Y0116627D03*
X0075398Y0116627D03*
X0075398Y0126627D03*
X0080398Y0126627D03*
X0080398Y0136627D03*
X0075398Y0136627D03*
X0075398Y0146627D03*
X0080398Y0146627D03*
X0080398Y0156627D03*
X0075398Y0156627D03*
X0075398Y0226627D03*
X0080398Y0226627D03*
D14*
X0380898Y0220627D03*
X0380898Y0200627D03*
X0380898Y0140627D03*
X0380898Y0120627D03*
X0380898Y0100627D03*
X0380898Y0080627D03*
X0380898Y0280627D03*
X0380898Y0300627D03*
X0380898Y0320627D03*
X0380898Y0340627D03*
D15*
X0287898Y0339627D02*
X0281898Y0339627D01*
X0281898Y0329627D02*
X0287898Y0329627D01*
X0248898Y0323127D02*
X0248898Y0317127D01*
X0238898Y0317127D02*
X0238898Y0323127D01*
X0228898Y0323127D02*
X0228898Y0317127D01*
X0218898Y0317127D02*
X0218898Y0323127D01*
X0208898Y0323127D02*
X0208898Y0317127D01*
X0198898Y0317127D02*
X0198898Y0323127D01*
X0188898Y0323127D02*
X0188898Y0317127D01*
X0178898Y0317127D02*
X0178898Y0323127D01*
X0177898Y0344627D02*
X0177898Y0350627D01*
X0167898Y0350627D02*
X0167898Y0344627D01*
X0167898Y0373627D02*
X0167898Y0379627D01*
X0177898Y0379627D02*
X0177898Y0373627D01*
X0224898Y0373627D02*
X0224898Y0379627D01*
X0234898Y0379627D02*
X0234898Y0373627D01*
X0234898Y0350627D02*
X0234898Y0344627D01*
X0224898Y0344627D02*
X0224898Y0350627D01*
X0281898Y0376127D02*
X0287898Y0376127D01*
X0287898Y0386127D02*
X0281898Y0386127D01*
X0149398Y0258127D02*
X0149398Y0252127D01*
X0139398Y0252127D02*
X0139398Y0258127D01*
X0129398Y0258127D02*
X0129398Y0252127D01*
X0119398Y0252127D02*
X0119398Y0258127D01*
X0109398Y0258127D02*
X0109398Y0252127D01*
X0099398Y0252127D02*
X0099398Y0258127D01*
X0109398Y0297127D02*
X0109398Y0303127D01*
X0119398Y0303127D02*
X0119398Y0297127D01*
X0129398Y0297127D02*
X0129398Y0303127D01*
X0139398Y0303127D02*
X0139398Y0297127D01*
X0139398Y0213127D02*
X0139398Y0207127D01*
X0129398Y0207127D02*
X0129398Y0213127D01*
X0119398Y0213127D02*
X0119398Y0207127D01*
X0109398Y0207127D02*
X0109398Y0213127D01*
X0099398Y0213127D02*
X0099398Y0207127D01*
X0099398Y0168127D02*
X0099398Y0162127D01*
X0109398Y0162127D02*
X0109398Y0168127D01*
X0119398Y0168127D02*
X0119398Y0162127D01*
X0129398Y0162127D02*
X0129398Y0168127D01*
X0139398Y0168127D02*
X0139398Y0162127D01*
X0149398Y0162127D02*
X0149398Y0168127D01*
X0149398Y0207127D02*
X0149398Y0213127D01*
X0149398Y0123127D02*
X0149398Y0117127D01*
X0139398Y0117127D02*
X0139398Y0123127D01*
X0129398Y0123127D02*
X0129398Y0117127D01*
X0119398Y0117127D02*
X0119398Y0123127D01*
X0109398Y0123127D02*
X0109398Y0117127D01*
X0099398Y0117127D02*
X0099398Y0123127D01*
X0099398Y0078127D02*
X0099398Y0072127D01*
X0109398Y0072127D02*
X0109398Y0078127D01*
X0119398Y0078127D02*
X0119398Y0072127D01*
X0129398Y0072127D02*
X0129398Y0078127D01*
X0139398Y0078127D02*
X0139398Y0072127D01*
X0149398Y0072127D02*
X0149398Y0078127D01*
X0178398Y0113127D02*
X0178398Y0119127D01*
X0188398Y0119127D02*
X0188398Y0113127D01*
X0198398Y0113127D02*
X0198398Y0119127D01*
X0208398Y0119127D02*
X0208398Y0113127D01*
X0218398Y0113127D02*
X0218398Y0119127D01*
X0228398Y0119127D02*
X0228398Y0113127D01*
X0238398Y0113127D02*
X0238398Y0119127D01*
X0248398Y0119127D02*
X0248398Y0113127D01*
X0277398Y0085127D02*
X0283398Y0085127D01*
X0283398Y0075127D02*
X0277398Y0075127D01*
X0277398Y0065127D02*
X0283398Y0065127D01*
X0283398Y0055127D02*
X0277398Y0055127D01*
X0277398Y0045127D02*
X0283398Y0045127D01*
X0283398Y0035127D02*
X0277398Y0035127D01*
X0277398Y0025127D02*
X0283398Y0025127D01*
X0311898Y0025127D02*
X0317898Y0025127D01*
X0317898Y0035127D02*
X0311898Y0035127D01*
X0311898Y0045127D02*
X0317898Y0045127D01*
X0317898Y0055127D02*
X0311898Y0055127D01*
X0311898Y0065127D02*
X0317898Y0065127D01*
X0317898Y0075127D02*
X0311898Y0075127D01*
X0311898Y0085127D02*
X0317898Y0085127D01*
X0346398Y0085127D02*
X0352398Y0085127D01*
X0352398Y0075127D02*
X0346398Y0075127D01*
X0346398Y0065127D02*
X0352398Y0065127D01*
X0352398Y0055127D02*
X0346398Y0055127D01*
X0346398Y0045127D02*
X0352398Y0045127D01*
X0352398Y0035127D02*
X0346398Y0035127D01*
X0346398Y0025127D02*
X0352398Y0025127D01*
X0352398Y0122127D02*
X0346398Y0122127D01*
X0346398Y0132127D02*
X0352398Y0132127D01*
X0352398Y0142127D02*
X0346398Y0142127D01*
X0346398Y0198627D02*
X0352398Y0198627D01*
X0352398Y0208627D02*
X0346398Y0208627D01*
X0346398Y0218627D02*
X0352398Y0218627D01*
X0149398Y0033127D02*
X0149398Y0027127D01*
X0139398Y0027127D02*
X0139398Y0033127D01*
X0129398Y0033127D02*
X0129398Y0027127D01*
X0119398Y0027127D02*
X0119398Y0033127D01*
X0109398Y0033127D02*
X0109398Y0027127D01*
X0099398Y0027127D02*
X0099398Y0033127D01*
D16*
X0006547Y0015777D03*
X0006547Y0032312D03*
X0006547Y0051997D03*
X0021898Y0059127D03*
X0006547Y0071682D03*
X0006547Y0091367D03*
X0023398Y0097627D03*
X0021898Y0106627D03*
X0024898Y0111627D03*
X0024898Y0116627D03*
X0006547Y0111052D03*
X0006547Y0130737D03*
X0006547Y0150423D03*
X0006547Y0170108D03*
X0018898Y0176627D03*
X0027898Y0186627D03*
X0029398Y0196627D03*
X0006547Y0189793D03*
X0006547Y0209478D03*
X0006547Y0229163D03*
X0014398Y0231627D03*
X0006547Y0248848D03*
X0006547Y0268533D03*
X0006547Y0288218D03*
X0006547Y0307903D03*
X0006547Y0327588D03*
X0006547Y0347273D03*
X0006547Y0366958D03*
X0021898Y0367627D03*
X0024898Y0361127D03*
X0030398Y0356627D03*
X0037398Y0376627D03*
X0051898Y0376627D03*
X0074398Y0353627D03*
X0069398Y0350627D03*
X0072398Y0338281D03*
X0081398Y0345127D03*
X0082398Y0332127D03*
X0074398Y0328627D03*
X0064398Y0328627D03*
X0061398Y0312627D03*
X0064398Y0306127D03*
X0051398Y0312627D03*
X0042898Y0295627D03*
X0033898Y0295627D03*
X0028898Y0303127D03*
X0030398Y0332627D03*
X0057898Y0348127D03*
X0085398Y0313127D03*
X0089398Y0291127D03*
X0109398Y0286627D03*
X0116398Y0290127D03*
X0120898Y0281627D03*
X0129398Y0289627D03*
X0141898Y0288627D03*
X0140898Y0274627D03*
X0139398Y0264627D03*
X0139398Y0246127D03*
X0129398Y0244127D03*
X0141898Y0231127D03*
X0139398Y0219627D03*
X0139398Y0201127D03*
X0129398Y0199127D03*
X0143398Y0182127D03*
X0137898Y0173627D03*
X0134398Y0176627D03*
X0139398Y0155627D03*
X0141898Y0144627D03*
X0139398Y0129627D03*
X0139398Y0111127D03*
X0129398Y0109627D03*
X0113898Y0109627D03*
X0104398Y0131127D03*
X0090898Y0136127D03*
X0103898Y0154627D03*
X0124398Y0151627D03*
X0154898Y0188127D03*
X0159898Y0176627D03*
X0171398Y0185627D03*
X0171898Y0167627D03*
X0164898Y0151627D03*
X0170398Y0145127D03*
X0183898Y0126627D03*
X0193398Y0126627D03*
X0203898Y0126627D03*
X0213398Y0126627D03*
X0222898Y0126627D03*
X0232898Y0126627D03*
X0242898Y0126627D03*
X0261898Y0126627D03*
X0261898Y0138627D03*
X0270898Y0146627D03*
X0255398Y0164627D03*
X0243398Y0164627D03*
X0233398Y0164627D03*
X0223398Y0164627D03*
X0238398Y0187627D03*
X0228398Y0191127D03*
X0209898Y0191127D03*
X0204898Y0188127D03*
X0199898Y0184127D03*
X0189898Y0186127D03*
X0189898Y0168127D03*
X0205898Y0207627D03*
X0208398Y0221127D03*
X0210398Y0240627D03*
X0215398Y0243627D03*
X0220398Y0246627D03*
X0229898Y0243627D03*
X0252398Y0252627D03*
X0254898Y0271627D03*
X0248398Y0274127D03*
X0262398Y0276627D03*
X0268398Y0266627D03*
X0275898Y0261127D03*
X0298398Y0261627D03*
X0298398Y0251627D03*
X0325898Y0221627D03*
X0331898Y0211627D03*
X0328898Y0208627D03*
X0338898Y0202127D03*
X0337898Y0218627D03*
X0315898Y0202127D03*
X0322898Y0181627D03*
X0328898Y0166627D03*
X0335398Y0176627D03*
X0338898Y0156627D03*
X0334898Y0146627D03*
X0349398Y0154127D03*
X0328898Y0126627D03*
X0340898Y0122127D03*
X0370898Y0125127D03*
X0370898Y0116127D03*
X0370898Y0105127D03*
X0370898Y0096127D03*
X0368898Y0082127D03*
X0369398Y0056627D03*
X0358898Y0036627D03*
X0339398Y0035127D03*
X0325398Y0035127D03*
X0324398Y0050627D03*
X0338398Y0060127D03*
X0338398Y0070127D03*
X0338898Y0080127D03*
X0340398Y0090127D03*
X0317398Y0092127D03*
X0295898Y0085627D03*
X0295898Y0075627D03*
X0295898Y0065127D03*
X0295898Y0055127D03*
X0290898Y0035127D03*
X0304398Y0035127D03*
X0298673Y0015777D03*
X0278988Y0015777D03*
X0269898Y0035127D03*
X0260898Y0042127D03*
X0259303Y0015777D03*
X0239618Y0015777D03*
X0219933Y0015777D03*
X0200248Y0015777D03*
X0180563Y0015777D03*
X0160878Y0015777D03*
X0141193Y0015777D03*
X0139398Y0021127D03*
X0121508Y0015777D03*
X0101823Y0015777D03*
X0082138Y0015777D03*
X0062453Y0015777D03*
X0042768Y0015777D03*
X0023083Y0015777D03*
X0066398Y0059127D03*
X0065898Y0081627D03*
X0071898Y0093127D03*
X0084898Y0106627D03*
X0089898Y0116627D03*
X0090898Y0093627D03*
X0092898Y0080127D03*
X0087898Y0054127D03*
X0113898Y0063627D03*
X0129398Y0063627D03*
X0139398Y0066127D03*
X0156898Y0051127D03*
X0139398Y0040127D03*
X0177898Y0081127D03*
X0177398Y0091127D03*
X0154898Y0093627D03*
X0142398Y0093627D03*
X0206898Y0082127D03*
X0228398Y0091127D03*
X0249398Y0091627D03*
X0249398Y0082127D03*
X0270398Y0070127D03*
X0276898Y0096627D03*
X0298398Y0111627D03*
X0298398Y0121627D03*
X0298398Y0131627D03*
X0298398Y0141627D03*
X0298398Y0151127D03*
X0298398Y0161627D03*
X0298398Y0172127D03*
X0298398Y0182127D03*
X0298398Y0191627D03*
X0298398Y0201627D03*
X0271398Y0196627D03*
X0265398Y0206627D03*
X0252898Y0228127D03*
X0235898Y0213627D03*
X0229898Y0216627D03*
X0248398Y0184127D03*
X0256398Y0183127D03*
X0198898Y0240627D03*
X0188898Y0243627D03*
X0178898Y0246627D03*
X0176398Y0242127D03*
X0180898Y0231627D03*
X0190398Y0216627D03*
X0184398Y0213627D03*
X0164898Y0213627D03*
X0159898Y0216627D03*
X0164398Y0221127D03*
X0161398Y0231627D03*
X0161898Y0244127D03*
X0162898Y0267627D03*
X0157898Y0281627D03*
X0156398Y0288627D03*
X0161398Y0319627D03*
X0171398Y0330127D03*
X0153898Y0351127D03*
X0147744Y0338281D03*
X0140898Y0356127D03*
X0134398Y0353627D03*
X0124398Y0350627D03*
X0111898Y0345127D03*
X0111398Y0330627D03*
X0109398Y0311127D03*
X0120398Y0372127D03*
X0120898Y0392627D03*
X0121508Y0403178D03*
X0141193Y0403178D03*
X0147898Y0392127D03*
X0160878Y0403178D03*
X0180563Y0403178D03*
X0194398Y0388627D03*
X0200248Y0403178D03*
X0219933Y0403178D03*
X0239618Y0403178D03*
X0251398Y0388627D03*
X0259898Y0377127D03*
X0273898Y0386127D03*
X0275398Y0373627D03*
X0286398Y0362627D03*
X0299398Y0369627D03*
X0295898Y0387127D03*
X0298673Y0403178D03*
X0278988Y0403178D03*
X0259303Y0403178D03*
X0240398Y0366627D03*
X0241898Y0354627D03*
X0251398Y0359627D03*
X0259898Y0348127D03*
X0270898Y0330127D03*
X0287398Y0311627D03*
X0300398Y0322127D03*
X0301398Y0346127D03*
X0264398Y0306127D03*
X0243898Y0309127D03*
X0223898Y0309127D03*
X0213898Y0309127D03*
X0203898Y0309127D03*
X0193398Y0309127D03*
X0183398Y0309127D03*
X0219398Y0338127D03*
X0210398Y0352627D03*
X0194398Y0359627D03*
X0185898Y0369127D03*
X0177898Y0367627D03*
X0177898Y0361127D03*
X0147898Y0372627D03*
X0101823Y0403178D03*
X0082138Y0403178D03*
X0062453Y0403178D03*
X0042768Y0403178D03*
X0023083Y0403178D03*
X0006547Y0403178D03*
X0006547Y0386643D03*
X0058398Y0271627D03*
X0058398Y0261627D03*
X0058398Y0251627D03*
X0058398Y0241627D03*
X0058398Y0221627D03*
X0058398Y0211627D03*
X0058398Y0201627D03*
X0058398Y0191627D03*
X0058398Y0181627D03*
X0058398Y0171627D03*
X0058398Y0161627D03*
X0058398Y0151627D03*
X0058398Y0141627D03*
X0058398Y0131627D03*
X0058398Y0121627D03*
X0058398Y0111627D03*
X0045898Y0126627D03*
X0042898Y0092627D03*
X0027898Y0086627D03*
X0043898Y0075627D03*
X0104398Y0200127D03*
X0114398Y0225127D03*
X0109398Y0237627D03*
X0114398Y0245627D03*
X0099398Y0243627D03*
X0031898Y0244627D03*
X0206398Y0258627D03*
X0233898Y0285127D03*
X0239398Y0338627D03*
X0209898Y0380627D03*
X0318358Y0403178D03*
X0338043Y0403178D03*
X0357728Y0403178D03*
X0364898Y0391627D03*
X0370398Y0386127D03*
X0364898Y0380127D03*
X0371898Y0361127D03*
X0393949Y0366958D03*
X0393949Y0386643D03*
X0393949Y0403178D03*
X0377413Y0403178D03*
X0341398Y0378127D03*
X0339898Y0348627D03*
X0351398Y0333627D03*
X0356898Y0329127D03*
X0356898Y0338127D03*
X0370898Y0325627D03*
X0370898Y0315627D03*
X0370898Y0305627D03*
X0370898Y0298127D03*
X0354398Y0304127D03*
X0333398Y0298627D03*
X0351398Y0278627D03*
X0369398Y0279127D03*
X0369398Y0248627D03*
X0351398Y0249127D03*
X0368898Y0220127D03*
X0368898Y0195127D03*
X0376898Y0161127D03*
X0393949Y0130737D03*
X0393949Y0111052D03*
X0393949Y0091367D03*
X0393949Y0071682D03*
X0393949Y0051997D03*
X0393949Y0032312D03*
X0393949Y0015777D03*
X0377413Y0015777D03*
X0357728Y0015777D03*
X0338043Y0015777D03*
X0318358Y0015777D03*
X0393949Y0347273D03*
M02*
